<svg width="18" height="18" viewBox="0 0 18 18" fill="none" xmlns="http://www.w3.org/2000/svg">
<path d="M14.25 3H12V1.5H10.5V3H7.5V1.5H6V3H3.75C2.92275 3 2.25 3.67275 2.25 4.5V15C2.25 15.8272 2.92275 16.5 3.75 16.5H14.25C15.0773 16.5 15.75 15.8272 15.75 15V4.5C15.75 3.67275 15.0773 3 14.25 3ZM3.75 15V5.25H14.25V4.5L14.2515 15H3.75Z" fill="#8F9297"/>
<path d="M11.7212 9.13725L10.3712 7.788L11.3987 6.75975L12.7487 8.109L11.7212 9.13725ZM6.00391 12.1508V13.5H7.35316L11.0852 9.7725L9.73591 8.42325L6.00391 12.1508Z" fill="#8F9297"/>
</svg>
