<svg width="20" height="20" viewBox="0 0 20 20" fill="none" xmlns="http://www.w3.org/2000/svg">
<path d="M2.5 5V16.6667C2.5 17.1087 2.67559 17.5326 2.98816 17.8452C3.30072 18.1577 3.72464 18.3333 4.16667 18.3333H15.8333C16.2754 18.3333 16.6993 18.1577 17.0118 17.8452C17.3244 17.5326 17.5 17.1087 17.5 16.6667V5C17.5 4.55797 17.3244 4.13405 17.0118 3.82149C16.6993 3.50893 16.2754 3.33333 15.8333 3.33333H14.1667V1.66666H12.5V3.33333H7.5V1.66666H5.83333V3.33333H4.16667C3.72464 3.33333 3.30072 3.50893 2.98816 3.82149C2.67559 4.13405 2.5 4.55797 2.5 5ZM15.8333 16.6667H4.16667V6.66666H15.8333V16.6667Z" fill="#EAECEF"/>
</svg>
