<svg width="41" height="40" viewBox="0 0 41 40" fill="none" xmlns="http://www.w3.org/2000/svg">
<path d="M33.584 11.6668H26.9173V6.66683C26.9173 4.8285 25.4223 3.3335 23.584 3.3335H16.9173C15.079 3.3335 13.584 4.8285 13.584 6.66683V15.0002H6.91732C5.07898 15.0002 3.58398 16.4952 3.58398 18.3335V33.3335C3.58398 33.7755 3.75958 34.1994 4.07214 34.512C4.3847 34.8246 4.80862 35.0002 5.25065 35.0002H35.2507C35.6927 35.0002 36.1166 34.8246 36.4292 34.512C36.7417 34.1994 36.9173 33.7755 36.9173 33.3335V15.0002C36.9173 13.1618 35.4223 11.6668 33.584 11.6668ZM6.91732 18.3335H13.584V31.6668H6.91732V18.3335ZM16.9173 16.6668V6.66683H23.584V31.6668H16.9173V16.6668ZM33.584 31.6668H26.9173V15.0002H33.584V31.6668Z" fill="#EAECEF"/>
</svg>
