<svg width="24" height="24" viewBox="0 0 24 24" fill="none" xmlns="http://www.w3.org/2000/svg">
<g clip-path="url(#clip0_248_2260)">
<path d="M14.6875 18.355C15.5062 18.0071 16.2504 17.5047 16.8796 16.8752L18.3662 18.3634C17.5466 19.1856 16.5754 19.8406 15.5064 20.292C13.5864 21.1029 11.4447 21.2211 9.44724 20.6265C7.44983 20.0319 5.72069 18.7612 4.55532 17.0318C3.89697 16.0582 3.43676 14.9643 3.20101 13.8126C3.15161 13.5603 3.11273 13.3061 3.08447 13.0506L-3.47479e-07 13.0506L4.19942 7.7956L8.39884 13.0506L5.20623 13.0506C5.22408 13.1641 5.23458 13.2787 5.25767 13.3911C5.34796 13.8326 5.48339 14.2687 5.65872 14.6839C6.00675 15.5024 6.50817 16.2466 7.13587 16.8763C7.76356 17.5062 8.50728 18.0084 9.32586 18.355C10.6118 18.8941 12.0299 19.0339 13.3962 18.7565C13.8386 18.6651 14.2711 18.5306 14.6875 18.355Z" fill="#0072FF"/>
<path d="M8.67971 5.64498C7.86097 5.99294 7.11675 6.49534 6.48762 7.12479L5.00102 5.63657C5.82058 4.81442 6.79182 4.15944 7.86083 3.70799C9.78082 2.89708 11.9225 2.77885 13.9199 3.3735C15.9174 3.96814 17.6465 5.23875 18.8119 6.96819C19.4702 7.94175 19.9304 9.03568 20.1662 10.1874C20.2156 10.4397 20.2545 10.6939 20.2827 10.9494L23.3672 10.9494L19.1678 16.2044L14.9683 10.9494L18.161 10.9494C18.1431 10.8359 18.1326 10.7213 18.1095 10.6089C18.0192 10.1674 17.8838 9.73128 17.7085 9.31613C17.3604 8.49762 16.859 7.75341 16.2313 7.12374C15.6036 6.49379 14.8599 5.99161 14.0413 5.64498C12.7554 5.10593 11.3373 4.96606 9.97103 5.2435C9.52857 5.33495 9.09608 5.46941 8.67971 5.64498Z" fill="#0072FF"/>
<path d="M12 11.1667C10.5 11.1667 10.5 10.6417 10.5 10.3333C10.5 10.025 11.025 9.5 12 9.5C12.975 9.5 13.0425 10.0333 13.05 10.3333H14.55C14.5399 9.76563 14.3561 9.21867 14.0289 8.78246C13.7018 8.34625 13.2507 8.04678 12.75 7.93333V7H11.25V7.90833C9.75 8.18333 9 9.25833 9 10.3333C9 11.2667 9.39 12.8333 12 12.8333C13.5 12.8333 13.5 13.4 13.5 13.6667C13.5 13.9333 13.035 14.5 12 14.5C10.62 14.5 10.5 13.7833 10.5 13.6667H9C9 14.4333 9.495 15.7917 11.25 16.1V17H12.75V16.1C14.25 15.8167 15 14.7417 15 13.6667C15 12.7333 14.61 11.1667 12 11.1667Z" fill="#0072FF"/>
</g>
<defs>
<clipPath id="clip0_248_2260">
<rect width="24" height="24" fill="white"/>
</clipPath>
</defs>
</svg>
