<svg width="15" height="11" viewBox="0 0 15 11" fill="none" xmlns="http://www.w3.org/2000/svg">
<g clip-path="url(#clip0_523_2050)">
<path fill-rule="evenodd" clip-rule="evenodd" d="M0 0.5H21.375V1.26953H0V0.5ZM0 2.03906H21.375V2.80859H0V2.03906ZM0 3.57617H21.375V4.34766H0V3.57617ZM0 5.11523H21.375V5.88477H0V5.11523ZM0 6.6543H21.375V7.42383H0V6.6543ZM0 8.19141H21.375V8.96094H0V8.19141ZM0 9.73047H21.375V10.5H0V9.73047Z" fill="#BD3D44"/>
<path fill-rule="evenodd" clip-rule="evenodd" d="M0 1.26953H21.375V2.03906H0V1.26953ZM0 2.80859H21.375V3.57617H0V2.80859ZM0 4.3457H21.375V5.11523H0V4.3457ZM0 5.88477H21.375V6.6543H0V5.88477ZM0 7.42383H21.375V8.19336H0V7.42383ZM0 8.96094H21.375V9.73047H0V8.96094Z" fill="white"/>
<path fill-rule="evenodd" clip-rule="evenodd" d="M0 0.5H8.54956V5.88477H0V0.5Z" fill="#192F5D"/>
<path fill-rule="evenodd" clip-rule="evenodd" d="M0.711914 0.730469L0.791016 0.943359H1.0415L0.839356 1.07422L0.91626 1.28906L0.711914 1.15625L0.509766 1.28711L0.58667 1.07422L0.382324 0.943359H0.637207L0.711914 0.730469ZM2.13794 0.730469L2.21484 0.943359H2.46753L2.26318 1.07422L2.34009 1.28906L2.13794 1.15625L1.93359 1.28711L2.0105 1.07422L1.80835 0.943359H2.05884L2.13794 0.730469ZM3.56177 0.730469L3.64087 0.943359H3.88916L3.68701 1.07422L3.76392 1.28906L3.55957 1.15625L3.35742 1.28711L3.43433 1.07422L3.22998 0.943359H3.48267L3.56177 0.730469ZM4.98779 0.730469L5.0647 0.943359H5.31738L5.11304 1.07422L5.19214 1.28906L4.98779 1.15625L4.78345 1.28711L4.86255 1.07422L4.6582 0.943359H4.90869L4.98779 0.730469ZM6.41162 0.730469L6.49072 0.943359H6.74121L6.53906 1.07422L6.61597 1.28906L6.41162 1.15625L6.20947 1.28711L6.28638 1.07422L6.08423 0.943359H6.33472L6.41162 0.730469ZM7.83765 0.730469L7.91455 0.943359H8.16724L7.96289 1.07422L8.04199 1.28906L7.83765 1.15625L7.6333 1.28711L7.7124 1.07422L7.50806 0.943359H7.76074L7.83765 0.730469ZM1.42603 1.26953L1.50293 1.48242H1.75562L1.55127 1.61328L1.62598 1.82617L1.42822 1.69531L1.22388 1.82617L1.29639 1.61328L1.09863 1.48242H1.34912L1.42603 1.26953ZM2.84985 1.26953L2.92896 1.48242H3.17944L2.9751 1.61328L3.0542 1.82617L2.84985 1.69531L2.64551 1.82617L2.72461 1.61328L2.52026 1.48242H2.77295L2.84985 1.26953ZM4.27588 1.26953L4.35278 1.48242H4.60547L4.40112 1.61328L4.47803 1.82617L4.27588 1.69531L4.07153 1.82617L4.14844 1.61328L3.94629 1.48242H4.19678L4.27588 1.26953ZM5.69971 1.26953L5.77881 1.48242H6.0293L5.82495 1.61328L5.90405 1.82617L5.69971 1.69531L5.49756 1.82617L5.57446 1.61328L5.37012 1.48242H5.625L5.69971 1.26953ZM7.12573 1.26953L7.20264 1.48242H7.45532L7.25098 1.61328L7.32788 1.82617L7.12573 1.69531L6.92139 1.82617L6.99829 1.61328L6.79614 1.48242H7.04663L7.12573 1.26953ZM0.711914 1.80664L0.791016 2.02344H1.0415L0.839356 2.1543L0.91626 2.36719L0.711914 2.23437L0.509766 2.36719L0.58667 2.15234L0.382324 2.02148H0.637207L0.711914 1.80664ZM2.13794 1.80664L2.21484 2.02148H2.46753L2.26318 2.15234L2.34009 2.36523L2.13794 2.23242L1.93359 2.36523L2.0105 2.15039L1.80835 2.01953H2.05884L2.13794 1.80664ZM3.56177 1.80664L3.64087 2.02148H3.88916L3.68701 2.15234L3.76392 2.36523L3.55957 2.23242L3.35742 2.36523L3.43433 2.15039L3.22998 2.01953H3.48267L3.56177 1.80664ZM4.98779 1.80664L5.0647 2.02148H5.31738L5.11304 2.15234L5.19214 2.36523L4.98779 2.23242L4.78345 2.36523L4.86255 2.15039L4.6582 2.01953H4.90869L4.98779 1.80664ZM6.41162 1.80664L6.49072 2.02148H6.74121L6.53906 2.15234L6.61597 2.36523L6.41162 2.23242L6.20947 2.36523L6.28638 2.15039L6.08423 2.01953H6.33472L6.41162 1.80664ZM7.83765 1.80664L7.91455 2.02148H8.16724L7.96289 2.15234L8.04199 2.36523L7.83765 2.23242L7.6333 2.36523L7.7124 2.15039L7.50806 2.01953H7.76074L7.83765 1.80664ZM1.42603 2.3457L1.50293 2.55859H1.75562L1.55127 2.68945L1.62817 2.9043L1.42603 2.77148L1.22168 2.90234L1.29858 2.68945L1.09644 2.55859H1.34692L1.42603 2.3457ZM2.84985 2.3457L2.92896 2.55859H3.17944L2.9751 2.68945L3.0542 2.9043L2.84985 2.77148L2.64551 2.90234L2.72461 2.68945L2.52026 2.55859H2.77295L2.84985 2.3457ZM4.27588 2.3457L4.35278 2.55859H4.60547L4.40112 2.68945L4.47803 2.9043L4.27588 2.77148L4.07153 2.90234L4.14844 2.68945L3.94629 2.55859H4.19678L4.27588 2.3457ZM5.69971 2.3457L5.77881 2.55859H6.0293L5.82715 2.68945L5.90405 2.9043L5.69971 2.77148L5.49756 2.90234L5.57446 2.68945L5.37012 2.55859H5.625L5.69971 2.3457ZM7.12573 2.3457L7.20264 2.55859H7.45532L7.25098 2.68945L7.32788 2.9043L7.12573 2.77148L6.92139 2.90234L6.99829 2.68945L6.79614 2.55859H7.04663L7.12573 2.3457ZM0.711914 2.88477L0.791016 3.09766H1.0415L0.839356 3.22852L0.91626 3.44336L0.711914 3.31055L0.509766 3.44141L0.58667 3.22852L0.382324 3.09766H0.637207L0.711914 2.88477ZM2.13794 2.88477L2.21484 3.09766H2.46753L2.26318 3.22852L2.34009 3.44141L2.13794 3.31055L1.93359 3.44141L2.0105 3.22852L1.80835 3.09766H2.05884L2.13794 2.88477ZM3.56177 2.88477L3.64087 3.09766H3.88916L3.68701 3.22852L3.76392 3.44336L3.55957 3.31055L3.35742 3.44141L3.43433 3.22852L3.22998 3.09766H3.48267L3.56177 2.88477ZM4.98779 2.88477L5.0647 3.09766H5.31738L5.11304 3.22852L5.19214 3.44336L4.98779 3.31055L4.78345 3.44141L4.86255 3.22852L4.6582 3.09766H4.90869L4.98779 2.88477ZM6.41162 2.88477L6.49072 3.09766H6.74121L6.53906 3.22852L6.61597 3.44336L6.41162 3.31055L6.20947 3.44141L6.28638 3.22852L6.08423 3.09766H6.33472L6.41162 2.88477ZM7.83765 2.88477L7.91455 3.09766H8.16724L7.96289 3.22852L8.04199 3.44336L7.83765 3.31055L7.6333 3.44141L7.7124 3.22852L7.50806 3.09766H7.76074L7.83765 2.88477ZM1.42603 3.42383L1.50293 3.63672H1.75562L1.55127 3.76758L1.62817 3.98047L1.42603 3.84766L1.22168 3.98047L1.29858 3.76562L1.09644 3.63477H1.34692L1.42603 3.42383ZM2.84985 3.42383L2.92896 3.63672H3.17944L2.9751 3.76758L3.0542 3.98047L2.84985 3.84766L2.64551 3.98047L2.72461 3.76562L2.52026 3.63477H2.77295L2.84985 3.42383ZM4.27588 3.42383L4.35278 3.63672H4.60547L4.40112 3.76758L4.47803 3.98047L4.27588 3.84766L4.07153 3.98047L4.14844 3.76562L3.94629 3.63477H4.19678L4.27588 3.42383ZM5.69971 3.42383L5.77881 3.63672H6.0293L5.82715 3.76758L5.90405 3.98047L5.69971 3.84766L5.49756 3.98047L5.57446 3.76562L5.37012 3.63477H5.625L5.69971 3.42383ZM7.12573 3.42383L7.20264 3.63672H7.45532L7.25098 3.76758L7.32788 3.98047L7.12573 3.84766L6.92139 3.98047L6.99829 3.76562L6.79614 3.63477H7.04663L7.12573 3.42383ZM0.711914 3.96094L0.791016 4.17578H1.0415L0.839356 4.30664L0.91626 4.51758L0.711914 4.38672L0.509766 4.51758L0.58667 4.30469L0.382324 4.17383H0.637207L0.711914 3.96094ZM2.13794 3.96094L2.21484 4.17578H2.46753L2.26318 4.30664L2.34229 4.51758L2.13794 4.38672L1.93359 4.51758L2.0127 4.30469L1.80835 4.17383H2.05884L2.13794 3.96094ZM3.56177 3.96094L3.64087 4.17578H3.88916L3.68701 4.30664L3.76392 4.51758L3.55957 4.38672L3.35742 4.51758L3.43433 4.30469L3.22998 4.17383H3.48267L3.56177 3.96094ZM4.98779 3.96094L5.0647 4.17578H5.31738L5.11304 4.30664L5.19214 4.51758L4.98779 4.38672L4.78345 4.51758L4.86255 4.30469L4.6582 4.17383H4.90869L4.98779 3.96094ZM6.41162 3.96094L6.49072 4.17578H6.74121L6.53906 4.30664L6.61597 4.51758L6.41162 4.38672L6.20947 4.51758L6.28638 4.30469L6.08423 4.17383H6.33472L6.41162 3.96094ZM7.83765 3.96094L7.91455 4.17578H8.16724L7.96289 4.30664L8.04199 4.51758L7.83765 4.38672L7.6333 4.51758L7.7124 4.30469L7.50806 4.17383H7.76074L7.83765 3.96094ZM1.42603 4.5L1.50293 4.71289H1.75562L1.55127 4.84375L1.62817 5.05859L1.42603 4.92578L1.22168 5.05664L1.29858 4.84375L1.09644 4.71289H1.34692L1.42603 4.5ZM2.84985 4.5L2.92896 4.71289H3.17944L2.9751 4.84375L3.0542 5.05859L2.84985 4.92578L2.64551 5.05664L2.72461 4.84375L2.52026 4.71289H2.77295L2.84985 4.5ZM4.27588 4.5L4.35278 4.71289H4.60547L4.40112 4.84375L4.47803 5.05859L4.27588 4.92578L4.07153 5.05664L4.14844 4.84375L3.94629 4.71289H4.19678L4.27588 4.5ZM5.69971 4.5L5.77881 4.71289H6.0293L5.82715 4.84375L5.90405 5.05859L5.69971 4.92578L5.49756 5.05664L5.57446 4.84375L5.37012 4.71289H5.625L5.69971 4.5ZM7.12573 4.5L7.20264 4.71289H7.45532L7.25098 4.84375L7.32788 5.05859L7.12573 4.92578L6.92139 5.05664L6.99829 4.84375L6.79614 4.71289H7.04663L7.12573 4.5ZM0.711914 5.03906L0.791016 5.25195H1.0415L0.839356 5.38281L0.91626 5.5957L0.711914 5.46484L0.509766 5.5957L0.58667 5.38086L0.382324 5.25H0.637207L0.711914 5.03906ZM2.13794 5.03906L2.21484 5.25195H2.46753L2.26318 5.38281L2.34229 5.5957L2.13794 5.46484L1.93359 5.5957L2.0127 5.38086L1.80835 5.25H2.05884L2.13794 5.03906ZM3.56177 5.03906L3.64087 5.25195H3.88916L3.69141 5.38281L3.76831 5.5957L3.56397 5.46484L3.36182 5.5957L3.43872 5.38086L3.23438 5.25H3.48706L3.56177 5.03906ZM4.98779 5.03906L5.0647 5.25195H5.31738L5.11304 5.38281L5.19214 5.5957L4.98779 5.46484L4.78345 5.5957L4.86255 5.38086L4.6582 5.25H4.90869L4.98779 5.03906ZM6.41162 5.03906L6.49072 5.25195H6.74121L6.53906 5.38281L6.61597 5.5957L6.41162 5.46484L6.20947 5.5957L6.28638 5.38086L6.08423 5.25H6.33472L6.41162 5.03906ZM7.83765 5.03906L7.91455 5.25195H8.16724L7.96289 5.38281L8.04199 5.5957L7.83765 5.46484L7.6333 5.5957L7.7124 5.38086L7.50806 5.25H7.76074L7.83765 5.03906Z" fill="white"/>
</g>
<defs>
<clipPath id="clip0_523_2050">
<rect width="15" height="10" fill="white" transform="translate(0 0.5)"/>
</clipPath>
</defs>
</svg>
