<svg width="84" height="84" viewBox="0 0 84 84" fill="none" xmlns="http://www.w3.org/2000/svg">
<path d="M42 7C22.701 7 7 22.701 7 42V56.5005C7 60.0845 10.1395 63 14 63H17.5C18.4283 63 19.3185 62.6313 19.9749 61.9749C20.6313 61.3185 21 60.4283 21 59.5V41.4995C21 40.5712 20.6313 39.681 19.9749 39.0246C19.3185 38.3682 18.4283 37.9995 17.5 37.9995H14.322C16.268 24.4545 27.923 14 42 14C56.077 14 67.732 24.4545 69.678 37.9995H66.5C65.5717 37.9995 64.6815 38.3682 64.0251 39.0246C63.3687 39.681 63 40.5712 63 41.4995V63C63 66.8605 59.8605 70 56 70H49V66.5H35V77H56C63.721 77 70 70.721 70 63C73.8605 63 77 60.0845 77 56.5005V42C77 22.701 61.299 7 42 7Z" fill="#1D2630"/>
</svg>
