<svg width="24" height="24" viewBox="0 0 24 24" fill="none" xmlns="http://www.w3.org/2000/svg">
<path d="M17.8957 3.553C17.8126 3.38684 17.6848 3.24711 17.5267 3.14944C17.3687 3.05177 17.1865 3.00003 17.0007 3H7.00072C6.62172 3 6.27572 3.214 6.10572 3.553L2.10572 11.553C2.0362 11.6919 2 11.8451 2 12.0005C2 12.1559 2.0362 12.3091 2.10572 12.448L6.10572 20.448C6.27572 20.786 6.62172 21 7.00072 21H17.0007C17.3797 21 17.7257 20.786 17.8957 20.447L21.8957 12.447C21.9652 12.3081 22.0014 12.1549 22.0014 11.9995C22.0014 11.8441 21.9652 11.6909 21.8957 11.552L17.8957 3.553ZM19.3827 11H11.6187L8.61872 5H16.3827L19.3827 11ZM4.11872 12L7.00072 6.236L9.88272 12L7.00072 17.764L4.11872 12ZM16.3827 19H8.61872L11.6187 13H19.3827L16.3827 19V19Z" fill="#EAECEF"/>
</svg>
