<svg width="24" height="24" viewBox="0 0 24 24" fill="none" xmlns="http://www.w3.org/2000/svg">
<path d="M16 2H8C4.691 2 2 4.691 2 8V20C2 20.2652 2.10536 20.5196 2.29289 20.7071C2.48043 20.8946 2.73478 21 3 21H16C19.309 21 22 18.309 22 15V8C22 4.691 19.309 2 16 2ZM20 15C20 17.206 18.206 19 16 19H4V8C4 5.794 5.794 4 8 4H16C18.206 4 20 5.794 20 8V15Z" fill="#EAECEF"/>
<path d="M11.25 13.4901V13.4091C11.2557 12.8807 11.3082 12.4602 11.4077 12.1477C11.5099 11.8352 11.6548 11.5824 11.8423 11.3892C12.0298 11.196 12.2557 11.0199 12.5199 10.8608C12.6903 10.7528 12.8438 10.6321 12.9801 10.4986C13.1165 10.3651 13.2244 10.2116 13.304 10.0384C13.3835 9.86506 13.4233 9.6733 13.4233 9.46307C13.4233 9.21023 13.3636 8.99148 13.2443 8.80682C13.125 8.62216 12.9659 8.48011 12.767 8.38068C12.571 8.27841 12.3523 8.22727 12.1108 8.22727C11.892 8.22727 11.6832 8.27273 11.4844 8.36364C11.2855 8.45455 11.1207 8.59659 10.9901 8.78977C10.8594 8.98011 10.7841 9.22585 10.7642 9.52699H9.46875C9.48864 9.01562 9.6179 8.58381 9.85653 8.23153C10.0952 7.87642 10.4105 7.60795 10.8026 7.42614C11.1974 7.24432 11.6335 7.15341 12.1108 7.15341C12.6335 7.15341 13.0909 7.25142 13.483 7.44744C13.875 7.64062 14.179 7.91193 14.3949 8.26136C14.6136 8.60795 14.723 9.01278 14.723 9.47585C14.723 9.79403 14.6733 10.081 14.5739 10.3366C14.4744 10.5895 14.3324 10.8153 14.1477 11.0142C13.9659 11.2131 13.7472 11.3892 13.4915 11.5426C13.25 11.6932 13.054 11.8494 12.9034 12.0114C12.7557 12.1733 12.6477 12.3651 12.5795 12.5866C12.5114 12.8082 12.4744 13.0824 12.4688 13.4091V13.4901H11.25ZM11.8935 16.081C11.6605 16.081 11.4602 15.9986 11.2926 15.8338C11.125 15.6662 11.0412 15.4645 11.0412 15.2287C11.0412 14.9957 11.125 14.7969 11.2926 14.6321C11.4602 14.4645 11.6605 14.3807 11.8935 14.3807C12.1236 14.3807 12.3224 14.4645 12.4901 14.6321C12.6605 14.7969 12.7457 14.9957 12.7457 15.2287C12.7457 15.3849 12.706 15.5284 12.6264 15.6591C12.5497 15.7869 12.4474 15.8892 12.3196 15.9659C12.1918 16.0426 12.0497 16.081 11.8935 16.081Z" fill="#EAECEF"/>
</svg>
