<svg width="15" height="15" viewBox="0 0 15 15" fill="none" xmlns="http://www.w3.org/2000/svg">
<path d="M6.25 6.87501H4.43812L4.43875 6.86938C4.52036 6.46978 4.68008 6.09022 4.90875 5.75251C5.24903 5.25114 5.72634 4.85823 6.28375 4.62063C6.4725 4.54063 6.66937 4.47938 6.87 4.43876C7.28618 4.35438 7.71507 4.35438 8.13125 4.43876C8.72936 4.56131 9.27819 4.85714 9.70937 5.28938L10.5944 4.40688C10.1955 4.00791 9.72359 3.68941 9.20437 3.46876C8.93957 3.35665 8.66425 3.27123 8.3825 3.21376C7.80115 3.09564 7.20198 3.09564 6.62062 3.21376C6.33866 3.27147 6.06313 3.3571 5.79812 3.46938C5.01721 3.8007 4.34871 4.35069 3.87312 5.05313C3.55305 5.52679 3.32923 6.05875 3.21437 6.61876C3.19687 6.70313 3.1875 6.78938 3.175 6.87501H1.25L3.75 9.37501L6.25 6.87501ZM8.75 8.12501H10.5619L10.5612 8.13001C10.3979 8.93111 9.92576 9.63569 9.24687 10.0913C8.90926 10.3201 8.52967 10.4799 8.13 10.5613C7.71403 10.6456 7.28535 10.6456 6.86937 10.5613C6.46977 10.4796 6.09022 10.3199 5.7525 10.0913C5.58664 9.97907 5.43178 9.85141 5.29 9.71001L4.40625 10.5938C4.80532 10.9926 5.27745 11.3109 5.79687 11.5313C6.06187 11.6438 6.33875 11.7294 6.61875 11.7863C7.19988 11.9044 7.79886 11.9044 8.38 11.7863C9.50034 11.5537 10.4858 10.8934 11.1269 9.94563C11.4466 9.47233 11.6702 8.9408 11.785 8.38126C11.8019 8.29688 11.8119 8.21063 11.8244 8.12501H13.75L11.25 5.62501L8.75 8.12501Z" fill="#0072FF"/>
</svg>
