<svg width="155" height="152" viewBox="0 0 155 152" fill="none" xmlns="http://www.w3.org/2000/svg">
<path d="M9.30445 119.082C9.08125 118.671 8.7582 118.36 8.33529 118.148C7.92414 117.925 7.43662 117.814 6.87275 117.814C5.89772 117.814 5.11652 118.137 4.52915 118.782C3.94178 119.417 3.64809 120.268 3.64809 121.336C3.64809 122.476 3.95353 123.368 4.56439 124.014C5.187 124.648 6.03868 124.965 7.11944 124.965C7.85953 124.965 8.48214 124.777 8.98727 124.401C9.50416 124.026 9.88007 123.485 10.115 122.781H6.29125V120.561H12.8463V123.362C12.6231 124.114 12.2413 124.812 11.7009 125.458C11.1723 126.104 10.4968 126.626 9.67449 127.026C8.85218 127.425 7.92414 127.625 6.89037 127.625C5.66864 127.625 4.57614 127.36 3.61285 126.832C2.66132 126.292 1.91536 125.546 1.37498 124.595C0.846347 123.644 0.582031 122.558 0.582031 121.336C0.582031 120.115 0.846347 119.029 1.37498 118.078C1.91536 117.115 2.66132 116.369 3.61285 115.841C4.56439 115.301 5.65102 115.031 6.87275 115.031C8.35292 115.031 9.59814 115.389 10.6084 116.105C11.6304 116.821 12.3059 117.814 12.6348 119.082H9.30445ZM17.8809 117.585V120.086H21.9162V122.411H17.8809V125.123H22.4448V127.537H14.8677V115.172H22.4448V117.585H17.8809ZM36.2601 127.537H33.2469L28.2072 119.91V127.537H25.194V115.172H28.2072L33.2469 122.834V115.172H36.2601V127.537ZM42.2503 117.585V120.086H46.2855V122.411H42.2503V125.123H46.8141V127.537H39.2371V115.172H46.8141V117.585H42.2503ZM55.0787 127.537L52.5061 122.869H51.7836V127.537H48.7704V115.172H53.8276C54.8027 115.172 55.6309 115.342 56.3122 115.682C57.0053 116.023 57.5222 116.493 57.8629 117.092C58.2035 117.679 58.3739 118.336 58.3739 119.064C58.3739 119.886 58.1389 120.62 57.669 121.266C57.2109 121.912 56.5295 122.37 55.625 122.64L58.4796 127.537H55.0787ZM51.7836 120.738H53.6514C54.2035 120.738 54.6147 120.603 54.8849 120.332C55.1668 120.062 55.3078 119.681 55.3078 119.188C55.3078 118.718 55.1668 118.348 54.8849 118.078C54.6147 117.808 54.2035 117.673 53.6514 117.673H51.7836V120.738ZM67.9659 125.352H63.3492L62.6091 127.537H59.4549L63.9307 115.172H67.4197L71.8954 127.537H68.706L67.9659 125.352ZM67.1906 123.027L65.6576 118.501L64.1422 123.027H67.1906ZM76.2707 125.212H80.2178V127.537H73.2575V115.172H76.2707V125.212Z" fill="#1D2630"/>
<path d="M95.16 115.172V117.585H91.8825V127.537H88.8693V117.585H85.5918V115.172H95.16ZM103.157 127.537L100.584 122.869H99.8616V127.537H96.8484V115.172H101.906C102.881 115.172 103.709 115.342 104.39 115.683C105.083 116.023 105.6 116.493 105.941 117.092C106.282 117.679 106.452 118.336 106.452 119.065C106.452 119.886 106.217 120.62 105.747 121.266C105.289 121.912 104.608 122.37 103.703 122.64L106.558 127.537H103.157ZM99.8616 120.738H101.729C102.282 120.738 102.693 120.603 102.963 120.333C103.245 120.063 103.386 119.681 103.386 119.188C103.386 118.718 103.245 118.348 102.963 118.078C102.693 117.808 102.282 117.673 101.729 117.673H99.8616V120.738ZM116.22 125.353H111.603L110.863 127.537H107.709L112.185 115.172H115.674L120.15 127.537H116.96L116.22 125.353ZM115.445 123.028L113.912 118.501L112.396 123.028H115.445ZM126.322 115.172C127.626 115.172 128.766 115.43 129.741 115.947C130.716 116.464 131.468 117.192 131.996 118.131C132.537 119.059 132.807 120.133 132.807 121.354C132.807 122.564 132.537 123.638 131.996 124.578C131.468 125.517 130.71 126.245 129.723 126.762C128.748 127.278 127.614 127.537 126.322 127.537H121.688V115.172H126.322ZM126.128 124.93C127.268 124.93 128.155 124.619 128.789 123.996C129.424 123.374 129.741 122.493 129.741 121.354C129.741 120.215 129.424 119.329 128.789 118.695C128.155 118.061 127.268 117.743 126.128 117.743H124.701V124.93H126.128ZM137.68 117.585V120.086H141.716V122.411H137.68V125.124H142.244V127.537H134.667V115.172H142.244V117.585H137.68ZM150.685 127.537L148.112 122.869H147.39V127.537H144.377V115.172H149.434C150.409 115.172 151.237 115.342 151.918 115.683C152.612 116.023 153.128 116.493 153.469 117.092C153.81 117.679 153.98 118.336 153.98 119.065C153.98 119.886 153.745 120.62 153.275 121.266C152.817 121.912 152.136 122.37 151.231 122.64L154.086 127.537H150.685ZM147.39 120.738H149.258C149.81 120.738 150.221 120.603 150.491 120.333C150.773 120.063 150.914 119.681 150.914 119.188C150.914 118.718 150.773 118.348 150.491 118.078C150.221 117.808 149.81 117.673 149.258 117.673H147.39V120.738Z" fill="#1D2630"/>
<path d="M58.8306 138.927C58.6404 138.577 58.3653 138.312 58.005 138.132C57.6549 137.941 57.2395 137.846 56.7591 137.846C55.9287 137.846 55.263 138.121 54.7627 138.672C54.2625 139.212 54.0122 139.937 54.0122 140.847C54.0122 141.818 54.2723 142.578 54.7928 143.128C55.323 143.668 56.0488 143.938 56.9693 143.938C57.5997 143.938 58.13 143.778 58.5604 143.458C59.0006 143.138 59.3211 142.678 59.5211 142.078H56.2638V140.187H61.8477V142.573C61.6575 143.213 61.3325 143.808 60.872 144.358C60.4217 144.909 59.8464 145.354 59.1458 145.694C58.4452 146.034 57.6549 146.204 56.7742 146.204C55.7335 146.204 54.8029 145.979 53.9822 145.529C53.1716 145.068 52.5363 144.433 52.0759 143.623C51.6255 142.813 51.4004 141.888 51.4004 140.847C51.4004 139.807 51.6255 138.882 52.0759 138.072C52.5363 137.251 53.1716 136.616 53.9822 136.166C54.7928 135.706 55.7185 135.476 56.7591 135.476C58.02 135.476 59.0809 135.781 59.9414 136.391C60.812 137.001 61.3873 137.846 61.6676 138.927H58.8306ZM68.7933 146.129L66.6018 142.153H65.9864V146.129H63.4196V135.596H67.7276C68.5581 135.596 69.2636 135.741 69.8441 136.031C70.4344 136.321 70.8749 136.721 71.165 137.231C71.4551 137.731 71.6003 138.292 71.6003 138.912C71.6003 139.612 71.4003 140.237 70.9999 140.787C70.6096 141.338 70.0291 141.728 69.2587 141.958L71.6904 146.129H68.7933ZM65.9864 140.337H67.5775C68.0477 140.337 68.3982 140.222 68.6282 139.992C68.8684 139.762 68.9885 139.437 68.9885 139.017C68.9885 138.617 68.8684 138.302 68.6282 138.072C68.3982 137.842 68.0477 137.726 67.5775 137.726H65.9864V140.337ZM78.3453 146.234C77.3546 146.234 76.4438 146.004 75.6133 145.544C74.7927 145.083 74.1374 144.443 73.647 143.623C73.1666 142.793 72.9265 141.863 72.9265 140.832C72.9265 139.802 73.1666 138.877 73.647 138.057C74.1374 137.236 74.7927 136.596 75.6133 136.136C76.4438 135.676 77.3546 135.446 78.3453 135.446C79.336 135.446 80.2415 135.676 81.0622 136.136C81.8926 136.596 82.5433 137.236 83.0135 138.057C83.4939 138.877 83.734 139.802 83.734 140.832C83.734 141.863 83.4939 142.793 83.0135 143.623C82.5332 144.443 81.8829 145.083 81.0622 145.544C80.2415 146.004 79.336 146.234 78.3453 146.234ZM78.3453 143.893C79.1859 143.893 79.8564 143.613 80.3567 143.053C80.867 142.493 81.1222 141.752 81.1222 140.832C81.1222 139.902 80.867 139.162 80.3567 138.612C79.8564 138.052 79.1859 137.771 78.3453 137.771C77.4946 137.771 76.8142 138.046 76.3038 138.597C75.8036 139.147 75.5533 139.892 75.5533 140.832C75.5533 141.763 75.8036 142.508 76.3038 143.068C76.8142 143.618 77.4946 143.893 78.3453 143.893ZM87.8339 135.596V141.898C87.8339 142.528 87.9889 143.013 88.2992 143.353C88.6095 143.693 89.0647 143.863 89.6652 143.863C90.2656 143.863 90.726 143.693 91.0461 143.353C91.3662 143.013 91.5265 142.528 91.5265 141.898V135.596H94.0933V141.883C94.0933 142.823 93.8932 143.618 93.4928 144.268C93.0924 144.918 92.5521 145.409 91.8717 145.739C91.2011 146.069 90.4506 146.234 89.6201 146.234C88.7897 146.234 88.044 146.074 87.3836 145.754C86.7332 145.424 86.2176 144.933 85.8375 144.283C85.4573 143.623 85.2671 142.823 85.2671 141.883V135.596H87.8339ZM104.077 138.987C104.077 139.597 103.936 140.157 103.656 140.667C103.376 141.167 102.946 141.572 102.365 141.883C101.785 142.193 101.064 142.348 100.204 142.348H98.6127V146.129H96.0459V135.596H100.204C101.044 135.596 101.755 135.741 102.335 136.031C102.916 136.321 103.351 136.721 103.641 137.231C103.931 137.741 104.077 138.327 104.077 138.987ZM100.009 140.307C100.499 140.307 100.864 140.192 101.104 139.962C101.345 139.732 101.465 139.407 101.465 138.987C101.465 138.567 101.345 138.242 101.104 138.012C100.864 137.782 100.499 137.666 100.009 137.666H98.6127V140.307H100.009Z" fill="#0072FF"/>
<path d="M98.7106 7.33905H95.1211V55.9399H98.7106V62.7897H100.995V55.9399H104.584V7.33905H100.995V0.163086H98.7106V7.33905Z" fill="#0072FF"/>
<path d="M77.3375 29.6823H73.748V78.2832H77.3375V85.133H79.6217V78.2832H83.2112V29.6823H79.6217V22.5063H77.3375V29.6823Z" fill="#0072FF"/>
<path d="M54.8219 51.4988H51.2324V99.8465H54.8219V106.661H57.1061V99.8465H60.6956V51.4988H57.1061V44.3604H54.8219V51.4988Z" fill="#0072FF"/>
<path d="M124.327 7.82812H115.516H115.486V91.0041H74.0742V99.811H124.327V7.82812Z" fill="#1D2630"/>
<path d="M32.3047 99.811H41.1152H41.1459V16.635H82.5573V7.82812H32.3047V99.811Z" fill="#1D2630"/>
</svg>
