<svg width="129" height="157" viewBox="0 0 129 157" fill="none" xmlns="http://www.w3.org/2000/svg">
<rect width="129" height="157" rx="10" fill="#455580"/>
<line y1="76.5" x2="129" y2="76.5" stroke="#2D3D52" stroke-width="3"/>
<path d="M120.951 23.5747C120.951 23.2801 121.024 23.0278 121.171 22.8179C121.319 22.6095 121.531 22.45 121.808 22.3394C122.086 22.2287 122.423 22.1733 122.816 22.1733C123.21 22.1733 123.546 22.2287 123.825 22.3394C124.105 22.45 124.318 22.6095 124.464 22.8179C124.612 23.0278 124.687 23.2801 124.687 23.5747C124.687 23.8677 124.612 24.1191 124.464 24.3291C124.316 24.5391 124.103 24.6994 123.825 24.8101C123.546 24.9207 123.21 24.9761 122.816 24.9761C122.423 24.9761 122.086 24.9207 121.808 24.8101C121.531 24.6994 121.319 24.5399 121.171 24.3315C121.024 24.1232 120.951 23.8709 120.951 23.5747ZM121.503 23.5747C121.503 23.7326 121.554 23.866 121.657 23.9751C121.759 24.0858 121.908 24.1696 122.104 24.2266C122.3 24.2852 122.538 24.3145 122.816 24.3145C123.096 24.3145 123.335 24.2852 123.532 24.2266C123.729 24.1696 123.878 24.0858 123.981 23.9751C124.085 23.866 124.137 23.7326 124.137 23.5747C124.137 23.3371 124.022 23.154 123.791 23.0254C123.561 22.8984 123.236 22.835 122.816 22.835C122.538 22.835 122.3 22.8634 122.104 22.9204C121.908 22.9774 121.759 23.0612 121.657 23.1719C121.554 23.2826 121.503 23.4168 121.503 23.5747ZM120.951 26.7241C120.951 26.4295 121.024 26.1772 121.171 25.9673C121.319 25.759 121.531 25.5994 121.808 25.4888C122.086 25.3781 122.423 25.3228 122.816 25.3228C123.21 25.3228 123.546 25.3781 123.825 25.4888C124.105 25.5994 124.318 25.759 124.464 25.9673C124.612 26.1772 124.687 26.4295 124.687 26.7241C124.687 27.0171 124.612 27.2686 124.464 27.4785C124.316 27.6885 124.103 27.8488 123.825 27.9595C123.546 28.0701 123.21 28.1255 122.816 28.1255C122.423 28.1255 122.086 28.0701 121.808 27.9595C121.531 27.8488 121.319 27.6893 121.171 27.481C121.024 27.2726 120.951 27.0203 120.951 26.7241ZM121.503 26.7241C121.503 26.882 121.554 27.0155 121.657 27.1245C121.759 27.2352 121.908 27.319 122.104 27.376C122.3 27.4346 122.538 27.4639 122.816 27.4639C123.096 27.4639 123.335 27.4346 123.532 27.376C123.729 27.319 123.878 27.2352 123.981 27.1245C124.085 27.0155 124.137 26.882 124.137 26.7241C124.137 26.4865 124.022 26.3034 123.791 26.1748C123.561 26.0479 123.236 25.9844 122.816 25.9844C122.538 25.9844 122.3 26.0129 122.104 26.0698C121.908 26.1268 121.759 26.2106 121.657 26.3213C121.554 26.432 121.503 26.5662 121.503 26.7241ZM120.951 30.9282C120.951 30.6336 121.024 30.3813 121.171 30.1714C121.319 29.9631 121.531 29.8035 121.808 29.6929C122.086 29.5822 122.423 29.5269 122.816 29.5269C123.21 29.5269 123.546 29.5822 123.825 29.6929C124.105 29.8035 124.318 29.9631 124.464 30.1714C124.612 30.3813 124.687 30.6336 124.687 30.9282C124.687 31.2212 124.612 31.4727 124.464 31.6826C124.316 31.8926 124.103 32.0529 123.825 32.1636C123.546 32.2743 123.21 32.3296 122.816 32.3296C122.423 32.3296 122.086 32.2743 121.808 32.1636C121.531 32.0529 121.319 31.8934 121.171 31.6851C121.024 31.4767 120.951 31.2244 120.951 30.9282ZM121.503 30.9282C121.503 31.0861 121.554 31.2196 121.657 31.3286C121.759 31.4393 121.908 31.5231 122.104 31.5801C122.3 31.6387 122.538 31.668 122.816 31.668C123.096 31.668 123.335 31.6387 123.532 31.5801C123.729 31.5231 123.878 31.4393 123.981 31.3286C124.085 31.2196 124.137 31.0861 124.137 30.9282C124.137 30.6906 124.022 30.5075 123.791 30.3789C123.561 30.252 123.236 30.1885 122.816 30.1885C122.538 30.1885 122.3 30.217 122.104 30.2739C121.908 30.3309 121.759 30.4147 121.657 30.5254C121.554 30.6361 121.503 30.7703 121.503 30.9282ZM120.951 34.0776C120.951 33.783 121.024 33.5308 121.171 33.3208C121.319 33.1125 121.531 32.953 121.808 32.8423C122.086 32.7316 122.423 32.6763 122.816 32.6763C123.21 32.6763 123.546 32.7316 123.825 32.8423C124.105 32.953 124.318 33.1125 124.464 33.3208C124.612 33.5308 124.687 33.783 124.687 34.0776C124.687 34.3706 124.612 34.6221 124.464 34.832C124.316 35.042 124.103 35.2023 123.825 35.313C123.546 35.4237 123.21 35.479 122.816 35.479C122.423 35.479 122.086 35.4237 121.808 35.313C121.531 35.2023 121.319 35.0428 121.171 34.8345C121.024 34.6261 120.951 34.3739 120.951 34.0776ZM121.503 34.0776C121.503 34.2355 121.554 34.369 121.657 34.478C121.759 34.5887 121.908 34.6725 122.104 34.7295C122.3 34.7881 122.538 34.8174 122.816 34.8174C123.096 34.8174 123.335 34.7881 123.532 34.7295C123.729 34.6725 123.878 34.5887 123.981 34.478C124.085 34.369 124.137 34.2355 124.137 34.0776C124.137 33.84 124.022 33.6569 123.791 33.5283C123.561 33.4014 123.236 33.3379 122.816 33.3379C122.538 33.3379 122.3 33.3664 122.104 33.4233C121.908 33.4803 121.759 33.5641 121.657 33.6748C121.554 33.7855 121.503 33.9198 121.503 34.0776ZM120.951 39.3364C120.951 39.0418 121.024 38.7896 121.171 38.5796C121.319 38.3713 121.531 38.2118 121.808 38.1011C122.086 37.9904 122.423 37.9351 122.816 37.9351C123.21 37.9351 123.546 37.9904 123.825 38.1011C124.105 38.2118 124.318 38.3713 124.464 38.5796C124.612 38.7896 124.687 39.0418 124.687 39.3364C124.687 39.6294 124.612 39.8809 124.464 40.0908C124.316 40.3008 124.103 40.4611 123.825 40.5718C123.546 40.6825 123.21 40.7378 122.816 40.7378C122.423 40.7378 122.086 40.6825 121.808 40.5718C121.531 40.4611 121.319 40.3016 121.171 40.0933C121.024 39.8849 120.951 39.6326 120.951 39.3364ZM121.503 39.3364C121.503 39.4943 121.554 39.6278 121.657 39.7368C121.759 39.8475 121.908 39.9313 122.104 39.9883C122.3 40.0469 122.538 40.0762 122.816 40.0762C123.096 40.0762 123.335 40.0469 123.532 39.9883C123.729 39.9313 123.878 39.8475 123.981 39.7368C124.085 39.6278 124.137 39.4943 124.137 39.3364C124.137 39.0988 124.022 38.9157 123.791 38.7871C123.561 38.6602 123.236 38.5967 122.816 38.5967C122.538 38.5967 122.3 38.6252 122.104 38.6821C121.908 38.7391 121.759 38.8229 121.657 38.9336C121.554 39.0443 121.503 39.1785 121.503 39.3364ZM120.951 42.4858C120.951 42.1912 121.024 41.939 121.171 41.729C121.319 41.5207 121.531 41.3612 121.808 41.2505C122.086 41.1398 122.423 41.0845 122.816 41.0845C123.21 41.0845 123.546 41.1398 123.825 41.2505C124.105 41.3612 124.318 41.5207 124.464 41.729C124.612 41.939 124.687 42.1912 124.687 42.4858C124.687 42.7788 124.612 43.0303 124.464 43.2402C124.316 43.4502 124.103 43.6105 123.825 43.7212C123.546 43.8319 123.21 43.8872 122.816 43.8872C122.423 43.8872 122.086 43.8319 121.808 43.7212C121.531 43.6105 121.319 43.451 121.171 43.2427C121.024 43.0343 120.951 42.7821 120.951 42.4858ZM121.503 42.4858C121.503 42.6437 121.554 42.7772 121.657 42.8862C121.759 42.9969 121.908 43.0807 122.104 43.1377C122.3 43.1963 122.538 43.2256 122.816 43.2256C123.096 43.2256 123.335 43.1963 123.532 43.1377C123.729 43.0807 123.878 42.9969 123.981 42.8862C124.085 42.7772 124.137 42.6437 124.137 42.4858C124.137 42.2482 124.022 42.0651 123.791 41.9365C123.561 41.8096 123.236 41.7461 122.816 41.7461C122.538 41.7461 122.3 41.7746 122.104 41.8315C121.908 41.8885 121.759 41.9723 121.657 42.083C121.554 42.1937 121.503 42.328 121.503 42.4858ZM120.951 45.6353C120.951 45.3407 121.024 45.0884 121.171 44.8784C121.319 44.6701 121.531 44.5106 121.808 44.3999C122.086 44.2892 122.423 44.2339 122.816 44.2339C123.21 44.2339 123.546 44.2892 123.825 44.3999C124.105 44.5106 124.318 44.6701 124.464 44.8784C124.612 45.0884 124.687 45.3407 124.687 45.6353C124.687 45.9282 124.612 46.1797 124.464 46.3896C124.316 46.5996 124.103 46.7599 123.825 46.8706C123.546 46.9813 123.21 47.0366 122.816 47.0366C122.423 47.0366 122.086 46.9813 121.808 46.8706C121.531 46.7599 121.319 46.6004 121.171 46.3921C121.024 46.1838 120.951 45.9315 120.951 45.6353ZM121.503 45.6353C121.503 45.7931 121.554 45.9266 121.657 46.0356C121.759 46.1463 121.908 46.2301 122.104 46.2871C122.3 46.3457 122.538 46.375 122.816 46.375C123.096 46.375 123.335 46.3457 123.532 46.2871C123.729 46.2301 123.878 46.1463 123.981 46.0356C124.085 45.9266 124.137 45.7931 124.137 45.6353C124.137 45.3976 124.022 45.2145 123.791 45.0859C123.561 44.959 123.236 44.8955 122.816 44.8955C122.538 44.8955 122.3 44.924 122.104 44.981C121.908 45.0379 121.759 45.1217 121.657 45.2324C121.554 45.3431 121.503 45.4774 121.503 45.6353ZM120.951 48.7847C120.951 48.4901 121.024 48.2378 121.171 48.0278C121.319 47.8195 121.531 47.66 121.808 47.5493C122.086 47.4386 122.423 47.3833 122.816 47.3833C123.21 47.3833 123.546 47.4386 123.825 47.5493C124.105 47.66 124.318 47.8195 124.464 48.0278C124.612 48.2378 124.687 48.4901 124.687 48.7847C124.687 49.0776 124.612 49.3291 124.464 49.5391C124.316 49.749 124.103 49.9093 123.825 50.02C123.546 50.1307 123.21 50.186 122.816 50.186C122.423 50.186 122.086 50.1307 121.808 50.02C121.531 49.9093 121.319 49.7498 121.171 49.5415C121.024 49.3332 120.951 49.0809 120.951 48.7847ZM121.503 48.7847C121.503 48.9425 121.554 49.076 121.657 49.1851C121.759 49.2957 121.908 49.3796 122.104 49.4365C122.3 49.4951 122.538 49.5244 122.816 49.5244C123.096 49.5244 123.335 49.4951 123.532 49.4365C123.729 49.3796 123.878 49.2957 123.981 49.1851C124.085 49.076 124.137 48.9425 124.137 48.7847C124.137 48.547 124.022 48.3639 123.791 48.2354C123.561 48.1084 123.236 48.0449 122.816 48.0449C122.538 48.0449 122.3 48.0734 122.104 48.1304C121.908 48.1873 121.759 48.2712 121.657 48.3818C121.554 48.4925 121.503 48.6268 121.503 48.7847ZM120.951 51.9341C120.951 51.6395 121.024 51.3872 121.171 51.1772C121.319 50.9689 121.531 50.8094 121.808 50.6987C122.086 50.5881 122.423 50.5327 122.816 50.5327C123.21 50.5327 123.546 50.5881 123.825 50.6987C124.105 50.8094 124.318 50.9689 124.464 51.1772C124.612 51.3872 124.687 51.6395 124.687 51.9341C124.687 52.2271 124.612 52.4785 124.464 52.6885C124.316 52.8984 124.103 53.0588 123.825 53.1694C123.546 53.2801 123.21 53.3354 122.816 53.3354C122.423 53.3354 122.086 53.2801 121.808 53.1694C121.531 53.0588 121.319 52.8993 121.171 52.6909C121.024 52.4826 120.951 52.2303 120.951 51.9341ZM121.503 51.9341C121.503 52.092 121.554 52.2254 121.657 52.3345C121.759 52.4451 121.908 52.529 122.104 52.5859C122.3 52.6445 122.538 52.6738 122.816 52.6738C123.096 52.6738 123.335 52.6445 123.532 52.5859C123.729 52.529 123.878 52.4451 123.981 52.3345C124.085 52.2254 124.137 52.092 124.137 51.9341C124.137 51.6965 124.022 51.5133 123.791 51.3848C123.561 51.2578 123.236 51.1943 122.816 51.1943C122.538 51.1943 122.3 51.2228 122.104 51.2798C121.908 51.3368 121.759 51.4206 121.657 51.5312C121.554 51.6419 121.503 51.7762 121.503 51.9341ZM120.951 55.0835C120.951 54.7889 121.024 54.5366 121.171 54.3267C121.319 54.1183 121.531 53.9588 121.808 53.8481C122.086 53.7375 122.423 53.6821 122.816 53.6821C123.21 53.6821 123.546 53.7375 123.825 53.8481C124.105 53.9588 124.318 54.1183 124.464 54.3267C124.612 54.5366 124.687 54.7889 124.687 55.0835C124.687 55.3765 124.612 55.6279 124.464 55.8379C124.316 56.0479 124.103 56.2082 123.825 56.3188C123.546 56.4295 123.21 56.4849 122.816 56.4849C122.423 56.4849 122.086 56.4295 121.808 56.3188C121.531 56.2082 121.319 56.0487 121.171 55.8403C121.024 55.632 120.951 55.3797 120.951 55.0835ZM121.503 55.0835C121.503 55.2414 121.554 55.3748 121.657 55.4839C121.759 55.5946 121.908 55.6784 122.104 55.7354C122.3 55.7939 122.538 55.8232 122.816 55.8232C123.096 55.8232 123.335 55.7939 123.532 55.7354C123.729 55.6784 123.878 55.5946 123.981 55.4839C124.085 55.3748 124.137 55.2414 124.137 55.0835C124.137 54.8459 124.022 54.6628 123.791 54.5342C123.561 54.4072 123.236 54.3437 122.816 54.3437C122.538 54.3437 122.3 54.3722 122.104 54.4292C121.908 54.4862 121.759 54.57 121.657 54.6807C121.554 54.7913 121.503 54.9256 121.503 55.0835Z" fill="#2D3D52"/>
<path d="M120.951 100.575C120.951 100.28 121.024 100.028 121.171 99.8179C121.319 99.6095 121.531 99.45 121.808 99.3394C122.086 99.2287 122.423 99.1733 122.816 99.1733C123.21 99.1733 123.546 99.2287 123.825 99.3394C124.105 99.45 124.318 99.6095 124.464 99.8179C124.612 100.028 124.687 100.28 124.687 100.575C124.687 100.868 124.612 101.119 124.464 101.329C124.316 101.539 124.103 101.699 123.825 101.81C123.546 101.921 123.21 101.976 122.816 101.976C122.423 101.976 122.086 101.921 121.808 101.81C121.531 101.699 121.319 101.54 121.171 101.332C121.024 101.123 120.951 100.871 120.951 100.575ZM121.503 100.575C121.503 100.733 121.554 100.866 121.657 100.975C121.759 101.086 121.908 101.17 122.104 101.227C122.3 101.285 122.538 101.314 122.816 101.314C123.096 101.314 123.335 101.285 123.532 101.227C123.729 101.17 123.878 101.086 123.981 100.975C124.085 100.866 124.137 100.733 124.137 100.575C124.137 100.337 124.022 100.154 123.791 100.025C123.561 99.8984 123.236 99.835 122.816 99.835C122.538 99.835 122.3 99.8634 122.104 99.9204C121.908 99.9774 121.759 100.061 121.657 100.172C121.554 100.283 121.503 100.417 121.503 100.575ZM120.951 103.724C120.951 103.43 121.024 103.177 121.171 102.967C121.319 102.759 121.531 102.599 121.808 102.489C122.086 102.378 122.423 102.323 122.816 102.323C123.21 102.323 123.546 102.378 123.825 102.489C124.105 102.599 124.318 102.759 124.464 102.967C124.612 103.177 124.687 103.43 124.687 103.724C124.687 104.017 124.612 104.269 124.464 104.479C124.316 104.688 124.103 104.849 123.825 104.959C123.546 105.07 123.21 105.125 122.816 105.125C122.423 105.125 122.086 105.07 121.808 104.959C121.531 104.849 121.319 104.689 121.171 104.481C121.024 104.273 120.951 104.02 120.951 103.724ZM121.503 103.724C121.503 103.882 121.554 104.015 121.657 104.125C121.759 104.235 121.908 104.319 122.104 104.376C122.3 104.435 122.538 104.464 122.816 104.464C123.096 104.464 123.335 104.435 123.532 104.376C123.729 104.319 123.878 104.235 123.981 104.125C124.085 104.015 124.137 103.882 124.137 103.724C124.137 103.486 124.022 103.303 123.791 103.175C123.561 103.048 123.236 102.984 122.816 102.984C122.538 102.984 122.3 103.013 122.104 103.07C121.908 103.127 121.759 103.211 121.657 103.321C121.554 103.432 121.503 103.566 121.503 103.724ZM120.951 107.928C120.951 107.634 121.024 107.381 121.171 107.171C121.319 106.963 121.531 106.804 121.808 106.693C122.086 106.582 122.423 106.527 122.816 106.527C123.21 106.527 123.546 106.582 123.825 106.693C124.105 106.804 124.318 106.963 124.464 107.171C124.612 107.381 124.687 107.634 124.687 107.928C124.687 108.221 124.612 108.473 124.464 108.683C124.316 108.893 124.103 109.053 123.825 109.164C123.546 109.274 123.21 109.33 122.816 109.33C122.423 109.33 122.086 109.274 121.808 109.164C121.531 109.053 121.319 108.893 121.171 108.685C121.024 108.477 120.951 108.224 120.951 107.928ZM121.503 107.928C121.503 108.086 121.554 108.22 121.657 108.329C121.759 108.439 121.908 108.523 122.104 108.58C122.3 108.639 122.538 108.668 122.816 108.668C123.096 108.668 123.335 108.639 123.532 108.58C123.729 108.523 123.878 108.439 123.981 108.329C124.085 108.22 124.137 108.086 124.137 107.928C124.137 107.691 124.022 107.507 123.791 107.379C123.561 107.252 123.236 107.188 122.816 107.188C122.538 107.188 122.3 107.217 122.104 107.274C121.908 107.331 121.759 107.415 121.657 107.525C121.554 107.636 121.503 107.77 121.503 107.928ZM120.951 111.078C120.951 110.783 121.024 110.531 121.171 110.321C121.319 110.112 121.531 109.953 121.808 109.842C122.086 109.732 122.423 109.676 122.816 109.676C123.21 109.676 123.546 109.732 123.825 109.842C124.105 109.953 124.318 110.112 124.464 110.321C124.612 110.531 124.687 110.783 124.687 111.078C124.687 111.371 124.612 111.622 124.464 111.832C124.316 112.042 124.103 112.202 123.825 112.313C123.546 112.424 123.21 112.479 122.816 112.479C122.423 112.479 122.086 112.424 121.808 112.313C121.531 112.202 121.319 112.043 121.171 111.834C121.024 111.626 120.951 111.374 120.951 111.078ZM121.503 111.078C121.503 111.236 121.554 111.369 121.657 111.478C121.759 111.589 121.908 111.673 122.104 111.729C122.3 111.788 122.538 111.817 122.816 111.817C123.096 111.817 123.335 111.788 123.532 111.729C123.729 111.673 123.878 111.589 123.981 111.478C124.085 111.369 124.137 111.236 124.137 111.078C124.137 110.84 124.022 110.657 123.791 110.528C123.561 110.401 123.236 110.338 122.816 110.338C122.538 110.338 122.3 110.366 122.104 110.423C121.908 110.48 121.759 110.564 121.657 110.675C121.554 110.785 121.503 110.92 121.503 111.078ZM120.951 116.336C120.951 116.042 121.024 115.79 121.171 115.58C121.319 115.371 121.531 115.212 121.808 115.101C122.086 114.99 122.423 114.935 122.816 114.935C123.21 114.935 123.546 114.99 123.825 115.101C124.105 115.212 124.318 115.371 124.464 115.58C124.612 115.79 124.687 116.042 124.687 116.336C124.687 116.629 124.612 116.881 124.464 117.091C124.316 117.301 124.103 117.461 123.825 117.572C123.546 117.682 123.21 117.738 122.816 117.738C122.423 117.738 122.086 117.682 121.808 117.572C121.531 117.461 121.319 117.302 121.171 117.093C121.024 116.885 120.951 116.633 120.951 116.336ZM121.503 116.336C121.503 116.494 121.554 116.628 121.657 116.737C121.759 116.847 121.908 116.931 122.104 116.988C122.3 117.047 122.538 117.076 122.816 117.076C123.096 117.076 123.335 117.047 123.532 116.988C123.729 116.931 123.878 116.847 123.981 116.737C124.085 116.628 124.137 116.494 124.137 116.336C124.137 116.099 124.022 115.916 123.791 115.787C123.561 115.66 123.236 115.597 122.816 115.597C122.538 115.597 122.3 115.625 122.104 115.682C121.908 115.739 121.759 115.823 121.657 115.934C121.554 116.044 121.503 116.179 121.503 116.336ZM120.951 119.486C120.951 119.191 121.024 118.939 121.171 118.729C121.319 118.521 121.531 118.361 121.808 118.25C122.086 118.14 122.423 118.084 122.816 118.084C123.21 118.084 123.546 118.14 123.825 118.25C124.105 118.361 124.318 118.521 124.464 118.729C124.612 118.939 124.687 119.191 124.687 119.486C124.687 119.779 124.612 120.03 124.464 120.24C124.316 120.45 124.103 120.611 123.825 120.721C123.546 120.832 123.21 120.887 122.816 120.887C122.423 120.887 122.086 120.832 121.808 120.721C121.531 120.611 121.319 120.451 121.171 120.243C121.024 120.034 120.951 119.782 120.951 119.486ZM121.503 119.486C121.503 119.644 121.554 119.777 121.657 119.886C121.759 119.997 121.908 120.081 122.104 120.138C122.3 120.196 122.538 120.226 122.816 120.226C123.096 120.226 123.335 120.196 123.532 120.138C123.729 120.081 123.878 119.997 123.981 119.886C124.085 119.777 124.137 119.644 124.137 119.486C124.137 119.248 124.022 119.065 123.791 118.937C123.561 118.81 123.236 118.746 122.816 118.746C122.538 118.746 122.3 118.775 122.104 118.832C121.908 118.889 121.759 118.972 121.657 119.083C121.554 119.194 121.503 119.328 121.503 119.486ZM120.951 122.635C120.951 122.341 121.024 122.088 121.171 121.878C121.319 121.67 121.531 121.511 121.808 121.4C122.086 121.289 122.423 121.234 122.816 121.234C123.21 121.234 123.546 121.289 123.825 121.4C124.105 121.511 124.318 121.67 124.464 121.878C124.612 122.088 124.687 122.341 124.687 122.635C124.687 122.928 124.612 123.18 124.464 123.39C124.316 123.6 124.103 123.76 123.825 123.871C123.546 123.981 123.21 124.037 122.816 124.037C122.423 124.037 122.086 123.981 121.808 123.871C121.531 123.76 121.319 123.6 121.171 123.392C121.024 123.184 120.951 122.931 120.951 122.635ZM121.503 122.635C121.503 122.793 121.554 122.927 121.657 123.036C121.759 123.146 121.908 123.23 122.104 123.287C122.3 123.346 122.538 123.375 122.816 123.375C123.096 123.375 123.335 123.346 123.532 123.287C123.729 123.23 123.878 123.146 123.981 123.036C124.085 122.927 124.137 122.793 124.137 122.635C124.137 122.398 124.022 122.215 123.791 122.086C123.561 121.959 123.236 121.896 122.816 121.896C122.538 121.896 122.3 121.924 122.104 121.981C121.908 122.038 121.759 122.122 121.657 122.232C121.554 122.343 121.503 122.477 121.503 122.635ZM120.951 125.785C120.951 125.49 121.024 125.238 121.171 125.028C121.319 124.819 121.531 124.66 121.808 124.549C122.086 124.439 122.423 124.383 122.816 124.383C123.21 124.383 123.546 124.439 123.825 124.549C124.105 124.66 124.318 124.819 124.464 125.028C124.612 125.238 124.687 125.49 124.687 125.785C124.687 126.078 124.612 126.329 124.464 126.539C124.316 126.749 124.103 126.909 123.825 127.02C123.546 127.131 123.21 127.186 122.816 127.186C122.423 127.186 122.086 127.131 121.808 127.02C121.531 126.909 121.319 126.75 121.171 126.542C121.024 126.333 120.951 126.081 120.951 125.785ZM121.503 125.785C121.503 125.943 121.554 126.076 121.657 126.185C121.759 126.296 121.908 126.38 122.104 126.437C122.3 126.495 122.538 126.524 122.816 126.524C123.096 126.524 123.335 126.495 123.532 126.437C123.729 126.38 123.878 126.296 123.981 126.185C124.085 126.076 124.137 125.943 124.137 125.785C124.137 125.547 124.022 125.364 123.791 125.235C123.561 125.108 123.236 125.045 122.816 125.045C122.538 125.045 122.3 125.073 122.104 125.13C121.908 125.187 121.759 125.271 121.657 125.382C121.554 125.493 121.503 125.627 121.503 125.785ZM120.951 128.934C120.951 128.639 121.024 128.387 121.171 128.177C121.319 127.969 121.531 127.809 121.808 127.699C122.086 127.588 122.423 127.533 122.816 127.533C123.21 127.533 123.546 127.588 123.825 127.699C124.105 127.809 124.318 127.969 124.464 128.177C124.612 128.387 124.687 128.639 124.687 128.934C124.687 129.227 124.612 129.479 124.464 129.688C124.316 129.898 124.103 130.059 123.825 130.169C123.546 130.28 123.21 130.335 122.816 130.335C122.423 130.335 122.086 130.28 121.808 130.169C121.531 130.059 121.319 129.899 121.171 129.691C121.024 129.483 120.951 129.23 120.951 128.934ZM121.503 128.934C121.503 129.092 121.554 129.225 121.657 129.334C121.759 129.445 121.908 129.529 122.104 129.586C122.3 129.645 122.538 129.674 122.816 129.674C123.096 129.674 123.335 129.645 123.532 129.586C123.729 129.529 123.878 129.445 123.981 129.334C124.085 129.225 124.137 129.092 124.137 128.934C124.137 128.696 124.022 128.513 123.791 128.385C123.561 128.258 123.236 128.194 122.816 128.194C122.538 128.194 122.3 128.223 122.104 128.28C121.908 128.337 121.759 128.421 121.657 128.531C121.554 128.642 121.503 128.776 121.503 128.934ZM120.951 132.083C120.951 131.789 121.024 131.537 121.171 131.327C121.319 131.118 121.531 130.959 121.808 130.848C122.086 130.737 122.423 130.682 122.816 130.682C123.21 130.682 123.546 130.737 123.825 130.848C124.105 130.959 124.318 131.118 124.464 131.327C124.612 131.537 124.687 131.789 124.687 132.083C124.687 132.376 124.612 132.628 124.464 132.838C124.316 133.048 124.103 133.208 123.825 133.319C123.546 133.43 123.21 133.485 122.816 133.485C122.423 133.485 122.086 133.43 121.808 133.319C121.531 133.208 121.319 133.049 121.171 132.84C121.024 132.632 120.951 132.38 120.951 132.083ZM121.503 132.083C121.503 132.241 121.554 132.375 121.657 132.484C121.759 132.595 121.908 132.678 122.104 132.735C122.3 132.794 122.538 132.823 122.816 132.823C123.096 132.823 123.335 132.794 123.532 132.735C123.729 132.678 123.878 132.595 123.981 132.484C124.085 132.375 124.137 132.241 124.137 132.083C124.137 131.846 124.022 131.663 123.791 131.534C123.561 131.407 123.236 131.344 122.816 131.344C122.538 131.344 122.3 131.372 122.104 131.429C121.908 131.486 121.759 131.57 121.657 131.681C121.554 131.791 121.503 131.926 121.503 132.083Z" fill="#2D3D52"/>
<rect x="109" y="90" width="54" height="3" rx="1.5" transform="rotate(90 109 90)" fill="#2D3D52"/>
<rect x="103" y="90" width="54" height="3" rx="1.5" transform="rotate(90 103 90)" fill="#2D3D52"/>
<rect x="97" y="90" width="54" height="3" rx="1.5" transform="rotate(90 97 90)" fill="#2D3D52"/>
<rect x="113.5" y="85.5" width="63" height="24" rx="4.5" transform="rotate(90 113.5 85.5)" stroke="#2D3D52"/>
</svg>
