<svg width="115" height="114" viewBox="0 0 115 114" fill="none" xmlns="http://www.w3.org/2000/svg">
<path d="M29.166 90.25H33.916V104.5H43.416V90.25H48.166C49.4258 90.25 50.634 89.7496 51.5248 88.8588C52.4156 87.968 52.916 86.7598 52.916 85.5V28.5C52.916 27.2402 52.4156 26.032 51.5248 25.1412C50.634 24.2504 49.4258 23.75 48.166 23.75H43.416V9.5H33.916V23.75H29.166C27.9062 23.75 26.6981 24.2504 25.8073 25.1412C24.9165 26.032 24.416 27.2402 24.416 28.5V85.5C24.416 86.7598 24.9165 87.968 25.8073 88.8588C26.6981 89.7496 27.9062 90.25 29.166 90.25ZM33.916 33.25H43.416V80.75H33.916V33.25ZM67.166 80.75H71.916V95H81.416V80.75H86.166C87.4258 80.75 88.634 80.2496 89.5248 79.3588C90.4156 78.468 90.916 77.2598 90.916 76V38C90.916 36.7402 90.4156 35.532 89.5248 34.6412C88.634 33.7504 87.4258 33.25 86.166 33.25H81.416V19H71.916V33.25H67.166C65.9062 33.25 64.6981 33.7504 63.8073 34.6412C62.9165 35.532 62.416 36.7402 62.416 38V76C62.416 77.2598 62.9165 78.468 63.8073 79.3588C64.6981 80.2496 65.9062 80.75 67.166 80.75ZM71.916 42.75H81.416V71.25H71.916V42.75Z" fill="#EAECEF"/>
</svg>
