<svg width="22" height="22" viewBox="0 0 22 22" fill="none" xmlns="http://www.w3.org/2000/svg">
<path d="M15.5872 4.58334H8.25016C6.56533 4.58334 4.963 5.25893 3.7365 6.48634C2.50908 7.71376 1.8335 9.31609 1.8335 11C1.8335 12.6848 2.50908 14.2872 3.7365 15.5137C4.963 16.7411 6.56533 17.4167 8.25016 17.4167H15.5835V15.5833H8.25016C7.05575 15.5833 5.91266 15.0984 5.03266 14.2175C4.15175 13.3375 3.66683 12.1944 3.66683 11C3.66683 9.80651 4.15175 8.66343 5.03266 7.78251C5.91266 6.90159 7.05575 6.41668 8.25016 6.41668H15.5835V5.50001L15.5844 6.41668H15.5872C16.3113 6.41668 16.9979 6.70451 17.5204 7.22884C18.0438 7.75226 18.3326 8.44068 18.3335 9.16851C18.3332 9.5285 18.2614 9.88484 18.1223 10.2169C17.9832 10.5489 17.7796 10.85 17.5232 11.1027C17.2694 11.3595 16.9675 11.5636 16.6346 11.7033C16.3017 11.843 15.9445 11.9155 15.5835 11.9167H8.25016C8.13066 11.9152 8.01262 11.8902 7.90282 11.843C7.79302 11.7958 7.69362 11.7274 7.61033 11.6417C7.52411 11.5583 7.45525 11.4587 7.40774 11.3485C7.36023 11.2384 7.33499 11.1199 7.3335 11C7.3335 10.769 7.43433 10.5353 7.60941 10.3602C7.69256 10.2739 7.79202 10.205 7.90202 10.1575C8.01201 10.11 8.13035 10.0848 8.25016 10.0833H15.5835V8.25001H8.25016C7.526 8.25001 6.83758 8.53876 6.31233 9.06493C5.788 9.58926 5.50016 10.2768 5.50016 11C5.50016 11.7233 5.788 12.4117 6.31416 12.9378C6.56717 13.1945 6.86854 13.3984 7.20085 13.5378C7.53315 13.6772 7.8898 13.7493 8.25016 13.75H15.5844C16.1859 13.7496 16.7814 13.63 17.3364 13.3983C17.8915 13.1665 18.3952 12.8272 18.8184 12.3998C19.2454 11.9764 19.5842 11.4727 19.8155 10.9176C20.0467 10.3626 20.1657 9.76729 20.1656 9.16603C20.1655 8.56476 20.0463 7.96947 19.815 7.41451C19.5836 6.85955 19.2446 6.35591 18.8175 5.93268C18.3952 5.50505 17.8922 5.16556 17.3377 4.93393C16.7832 4.7023 16.1881 4.58313 15.5872 4.58334Z" fill="#455580"/>
</svg>
