<svg width="194" height="46" viewBox="0 0 194 46" fill="none" xmlns="http://www.w3.org/2000/svg">
<path d="M28.9352 3.05392H27.3711V23.7373H28.9352V26.6524H29.9305V23.7373H31.4946V3.05392H29.9305V0H28.9352V3.05392Z" fill="#0072FF"/>
<path d="M9.81215 21.8473H8.24805V42.4229H9.81215V45.3229H10.8075V42.4229H12.3716V21.8473H10.8075V18.8094H9.81215V21.8473Z" fill="#0072FF"/>
<path d="M40.0986 3.26215H36.2594H36.2461V38.6598H18.2012V42.4078H40.0986V3.26215Z" fill="#1D2630"/>
<path d="M0 42.4078H3.83916H3.85252V7.01013H21.8974V3.26215H0V42.4078Z" fill="#1D2630"/>
<path d="M19.6227 12.5627H18.0586V33.246H19.6227V36.1611H20.618V33.246H22.1821V12.5627H20.618V9.50879H19.6227V12.5627Z" fill="#0072FF"/>
<path d="M57.0881 12.3577C56.8776 11.979 56.5728 11.6923 56.1738 11.4975C55.7859 11.292 55.326 11.1892 54.7941 11.1892C53.8742 11.1892 53.1372 11.4867 52.5831 12.0818C52.029 12.666 51.7519 13.4504 51.7519 14.435C51.7519 15.4845 52.0401 16.3067 52.6163 16.9018C53.2037 17.486 54.0072 17.7782 55.0268 17.7782C55.725 17.7782 56.3124 17.605 56.7889 17.2588C57.2765 16.9126 57.6312 16.4149 57.8528 15.7658H54.2455V13.7209H60.4295V16.3013C60.219 16.9938 59.8588 17.6375 59.349 18.2326C58.8503 18.8276 58.213 19.3091 57.4372 19.6769C56.6615 20.0448 55.7859 20.2287 54.8107 20.2287C53.6581 20.2287 52.6274 19.9853 51.7187 19.4984C50.821 19.0007 50.1172 18.3137 49.6074 17.4373C49.1087 16.561 48.8594 15.5602 48.8594 14.435C48.8594 13.3098 49.1087 12.309 49.6074 11.4326C50.1172 10.5454 50.821 9.85841 51.7187 9.37154C52.6163 8.87385 53.6415 8.625 54.7941 8.625C56.1905 8.625 57.3652 8.95499 58.3183 9.61497C59.2825 10.275 59.9197 11.1892 60.23 12.3577H57.0881ZM65.1792 10.9782V13.2827H68.9861V15.425H65.1792V17.9242H69.4848V20.1476H62.3366V8.75483H69.4848V10.9782H65.1792ZM82.5182 20.1476H79.6755L74.921 13.1204V20.1476H72.0784V8.75483H74.921L79.6755 15.8144V8.75483H82.5182V20.1476ZM88.1694 10.9782V13.2827H91.9762V15.425H88.1694V17.9242H92.4749V20.1476H85.3267V8.75483H92.4749V10.9782H88.1694ZM100.272 20.1476L97.8447 15.8469H97.1631V20.1476H94.3205V8.75483H99.0915C100.011 8.75483 100.793 8.91171 101.435 9.22547C102.089 9.53923 102.577 9.972 102.898 10.5238C103.22 11.0648 103.38 11.6706 103.38 12.3414C103.38 13.0988 103.159 13.775 102.715 14.3701C102.283 14.9651 101.64 15.3871 100.787 15.6359L103.48 20.1476H100.272ZM97.1631 13.8832H98.9252C99.4461 13.8832 99.834 13.7588 100.089 13.5099C100.355 13.2611 100.488 12.9095 100.488 12.455C100.488 12.0223 100.355 11.6815 100.089 11.4326C99.834 11.1838 99.4461 11.0594 98.9252 11.0594H97.1631V13.8832ZM112.43 18.1352H108.074L107.376 20.1476H104.4L108.623 8.75483H111.914L116.137 20.1476H113.128L112.43 18.1352ZM111.698 15.993L110.252 11.8221L108.822 15.993H111.698ZM120.264 18.0054H123.988V20.1476H117.422V8.75483H120.264V18.0054Z" fill="#1D2630"/>
<path d="M138.085 8.75484V10.9782H134.993V20.1476H132.151V10.9782H129.059V8.75484H138.085ZM145.629 20.1476L143.202 15.8469H142.521V20.1476H139.678V8.75484H144.449C145.369 8.75484 146.15 8.91171 146.793 9.22547C147.447 9.53923 147.935 9.97201 148.256 10.5238C148.577 11.0648 148.738 11.6706 148.738 12.3414C148.738 13.0988 148.516 13.775 148.073 14.3701C147.641 14.9651 146.998 15.3871 146.145 15.6359L148.838 20.1476H145.629ZM142.521 13.8832H144.283C144.804 13.8832 145.192 13.7588 145.447 13.5099C145.713 13.2611 145.846 12.9095 145.846 12.455C145.846 12.0223 145.713 11.6815 145.447 11.4326C145.192 11.1838 144.804 11.0594 144.283 11.0594H142.521V13.8832ZM157.953 18.1352H153.598L152.9 20.1476H149.924L154.147 8.75484H157.438L161.661 20.1476H158.652L157.953 18.1352ZM157.222 15.993L155.776 11.8221L154.346 15.993H157.222ZM167.484 8.75484C168.714 8.75484 169.789 8.99286 170.709 9.46891C171.629 9.94496 172.338 10.6158 172.837 11.4813C173.346 12.336 173.601 13.326 173.601 14.4512C173.601 15.5656 173.346 16.5556 172.837 17.4211C172.338 18.2867 171.623 18.9575 170.692 19.4335C169.772 19.9096 168.703 20.1476 167.484 20.1476H163.112V8.75484H167.484ZM167.301 17.7457C168.376 17.7457 169.213 17.459 169.811 16.8856C170.41 16.3121 170.709 15.5007 170.709 14.4512C170.709 13.4017 170.41 12.5849 169.811 12.0006C169.213 11.4164 168.376 11.1243 167.301 11.1243H165.954V17.7457H167.301ZM178.199 10.9782V13.2827H182.006V15.425H178.199V17.9242H182.505V20.1476H175.356V8.75484H182.505V10.9782H178.199ZM190.468 20.1476L188.041 15.8469H187.359V20.1476H184.516V8.75484H189.287C190.207 8.75484 190.989 8.91171 191.631 9.22547C192.285 9.53923 192.773 9.97201 193.094 10.5238C193.416 11.0648 193.576 11.6706 193.576 12.3414C193.576 13.0988 193.355 13.775 192.911 14.3701C192.479 14.9651 191.836 15.3871 190.983 15.6359L193.676 20.1476H190.468ZM187.359 13.8832H189.121C189.642 13.8832 190.03 13.7588 190.285 13.5099C190.551 13.2611 190.684 12.9095 190.684 12.455C190.684 12.0223 190.551 11.6815 190.285 11.4326C190.03 11.1838 189.642 11.0594 189.121 11.0594H187.359V13.8832Z" fill="#1D2630"/>
<path d="M55.8691 30.5198C55.6896 30.1974 55.4301 29.953 55.0902 29.7871C54.7599 29.6119 54.368 29.5245 53.9148 29.5245C53.1314 29.5245 52.5034 29.7778 52.0314 30.2848C51.5595 30.7825 51.3234 31.4506 51.3234 32.2894C51.3234 33.1835 51.5687 33.8837 52.0598 34.3907C52.56 34.8884 53.2447 35.1373 54.1131 35.1373C54.7079 35.1373 55.2081 34.9897 55.6142 34.6949C56.0295 34.4001 56.3318 33.976 56.5205 33.423H53.4475V31.6811H58.7154V33.8792C58.5359 34.4692 58.2293 35.0174 57.795 35.5244C57.3701 36.0314 56.8274 36.4413 56.1664 36.7548C55.5055 37.0682 54.7599 37.2248 53.929 37.2248C52.9473 37.2248 52.0693 37.0174 51.2951 36.6027C50.5304 36.1786 49.931 35.5935 49.4966 34.847C49.0718 34.1004 48.8594 33.2478 48.8594 32.2894C48.8594 31.331 49.0718 30.4784 49.4966 29.7318C49.931 28.976 50.5304 28.3908 51.2951 27.9761C52.0598 27.552 52.9331 27.3402 53.9148 27.3402C55.1044 27.3402 56.1052 27.6212 56.917 28.1835C57.7383 28.7458 58.281 29.5245 58.5455 30.5198H55.8691ZM65.268 37.1557L63.2004 33.4921H62.6198V37.1557H60.1983V27.4508H64.2625C65.046 27.4508 65.7116 27.5845 66.2592 27.8517C66.8161 28.1188 67.2317 28.4876 67.5054 28.9576C67.7791 29.4184 67.9161 29.9347 67.9161 30.506C67.9161 31.1513 67.7273 31.7271 67.3496 32.2341C66.9814 32.7411 66.4338 33.1005 65.7069 33.3124L68.001 37.1557H65.268ZM62.6198 31.8194H64.1209C64.5645 31.8194 64.8952 31.7133 65.1122 31.5014C65.3388 31.2895 65.452 30.9899 65.452 30.6028C65.452 30.234 65.3388 29.9437 65.1122 29.7318C64.8952 29.5199 64.5645 29.4139 64.1209 29.4139H62.6198V31.8194ZM74.2793 37.2525C73.3446 37.2525 72.4854 37.0406 71.702 36.6165C70.9277 36.1925 70.3096 35.6028 69.8469 34.847C69.3937 34.0821 69.1672 33.225 69.1672 32.2756C69.1672 31.3262 69.3937 30.4739 69.8469 29.718C70.3096 28.9622 70.9277 28.3725 71.702 27.9484C72.4854 27.5244 73.3446 27.3125 74.2793 27.3125C75.2139 27.3125 76.0682 27.5244 76.8424 27.9484C77.6259 28.3725 78.2397 28.9622 78.6833 29.718C79.1365 30.4739 79.3631 31.3262 79.3631 32.2756C79.3631 33.225 79.1365 34.0821 78.6833 34.847C78.2302 35.6028 77.6166 36.1925 76.8424 36.6165C76.0682 37.0406 75.2139 37.2525 74.2793 37.2525ZM74.2793 35.0958C75.0723 35.0958 75.7049 34.8377 76.1768 34.3216C76.6583 33.8056 76.899 33.1234 76.899 32.2756C76.899 31.4184 76.6583 30.7365 76.1768 30.2295C75.7049 29.7135 75.0723 29.4553 74.2793 29.4553C73.4767 29.4553 72.8348 29.7087 72.3534 30.2157C71.8814 30.7227 71.6453 31.4091 71.6453 32.2756C71.6453 33.1327 71.8814 33.8194 72.3534 34.3355C72.8348 34.8425 73.4767 35.0958 74.2793 35.0958ZM83.2309 27.4508V33.2571C83.2309 33.8378 83.3771 34.2847 83.6698 34.5981C83.9626 34.9116 84.3921 35.0682 84.9585 35.0682C85.5249 35.0682 85.9593 34.9116 86.2613 34.5981C86.5633 34.2847 86.7145 33.8378 86.7145 33.2571V27.4508H89.136V33.2433C89.136 34.1097 88.9473 34.8425 88.5695 35.4414C88.1918 36.0404 87.682 36.4921 87.0402 36.7962C86.4075 37.1004 85.6995 37.2525 84.916 37.2525C84.1325 37.2525 83.4291 37.1049 82.806 36.8101C82.1925 36.5059 81.7061 36.0542 81.3474 35.4553C80.9888 34.847 80.8093 34.1097 80.8093 33.2433V27.4508H83.2309ZM98.5543 30.5751C98.5543 31.1374 98.4219 31.6535 98.1578 32.1235C97.8933 32.5842 97.4873 32.9575 96.9399 33.2433C96.3923 33.5291 95.7125 33.6719 94.9007 33.6719H93.3997V37.1557H90.9781V27.4508H94.9007C95.6938 27.4508 96.3639 27.5845 96.9116 27.8517C97.459 28.1188 97.8696 28.4876 98.1436 28.9576C98.4173 29.4277 98.5543 29.9668 98.5543 30.5751ZM94.7167 31.7917C95.179 31.7917 95.5238 31.6856 95.7504 31.4737C95.977 31.2619 96.0903 30.9622 96.0903 30.5751C96.0903 30.188 95.977 29.8884 95.7504 29.6765C95.5238 29.4647 95.179 29.3586 94.7167 29.3586H93.3997V31.7917H94.7167Z" fill="#0072FF"/>
</svg>
