<svg width="24" height="24" viewBox="0 0 24 24" fill="none" xmlns="http://www.w3.org/2000/svg">
<path d="M9.16045 17.6362C9.08504 17.9778 8.99727 18.518 9.65132 19.0305C10.4508 19.657 11.2425 18.9611 11.4317 18.7719L11.8219 18.3817M9.16045 17.6362L11.9996 14.7971M9.16045 17.6362C8.968 17.8287 7.66319 18.6617 6.88916 17.6362C6.26833 16.8137 6.96809 15.8538 7.45699 15.3649M7.45699 15.3649L10.5337 12.5814M7.45699 15.3649C6.83794 15.984 5.52639 16.8413 4.61787 15.9327C3.70936 15.0242 4.90841 13.7293 5.47623 13.3507M5.47623 13.3507L8.36614 10.9738M5.47623 13.3507C4.90841 13.7293 3.88872 14.6616 2.74088 13.9111C2.42389 13.7038 1.89781 12.6867 3.48223 11.3902M3.48223 11.3902C4.61787 10.4608 6.69989 8.74032 7.45699 7.98322C9.16045 9.12703 11.7724 9.11887 13.1352 6.84758C13.8923 7.98322 15.5264 9.68669 16.5421 9.68669C17.0845 9.68669 18.8134 8.44431 18.2456 7.98322L15.2711 4.57629M3.48223 11.3902H1.21094V4.57629H15.2711M15.2711 4.57629L15.6608 5.02268L22.7882 4.57629V11.3902H20.8008M20.8008 11.3902H18.8134L17.7611 12.4694M20.8008 11.3902C21.274 11.958 22.4403 13.0296 21.0847 14.2293C20.6178 14.6425 19.7549 14.5109 19.3813 14.1096M17.7611 12.4694C18.2396 12.9334 18.9139 13.6077 19.3813 14.1096M17.7611 12.4694L15.6608 14.5428M19.3813 14.1096C19.7622 14.4559 19.6718 15.3572 19.2402 15.877C18.7491 16.4683 17.6778 16.5006 17.11 15.9327M17.11 15.9327L15.6608 14.5428M17.11 15.9327C17.593 16.4335 18.0213 17.2593 17.2476 18.0092C16.5137 18.7205 15.3127 18.0943 14.8677 17.6392M15.6608 14.5428L13.703 16.5006M14.8677 17.6392L13.703 16.5006M14.8677 17.6392C15.3613 18.0989 15.0974 19.0616 14.1805 19.3482C13.1678 19.6647 12.449 18.8903 11.8219 18.3817M13.703 16.5006L11.8219 18.3817" stroke="#0072FF" stroke-width="1.5" stroke-linecap="round" stroke-linejoin="round"/>
</svg>
