<svg width="114" height="114" viewBox="0 0 114 114" fill="none" xmlns="http://www.w3.org/2000/svg">
<path d="M95 33.25V23.75C95 18.5107 90.7393 14.25 85.5 14.25H23.75C15.8935 14.25 9.5 20.6435 9.5 28.5V85.5C9.5 95.9548 18.0215 99.75 23.75 99.75H95C100.239 99.75 104.5 95.4893 104.5 90.25V42.75C104.5 37.5107 100.239 33.25 95 33.25ZM85.5 76H76V57H85.5V76ZM23.75 33.25C22.527 33.1953 21.3722 32.6709 20.5261 31.7861C19.6799 30.9013 19.2077 29.7243 19.2077 28.5C19.2077 27.2757 19.6799 26.0987 20.5261 25.2139C21.3722 24.3291 22.527 23.8047 23.75 23.75H85.5V33.25H23.75Z" fill="#EAECEF"/>
</svg>
