<svg width="84" height="84" viewBox="0 0 84 84" fill="none" xmlns="http://www.w3.org/2000/svg">
<path d="M42 52.5C35.56 52.5 35 49.49 35 49H28C28 52.22 30.31 57.925 38.5 59.22V63H45.5V59.22C52.5 58.03 56 53.515 56 49C56 45.08 54.18 38.5 42 38.5C35 38.5 35 36.295 35 35C35 33.705 37.45 31.5 42 31.5C46.55 31.5 46.865 33.74 46.9 35H53.9C53.8527 32.6156 52.9951 30.3184 51.4684 28.4863C49.9417 26.6543 47.8367 25.3965 45.5 24.92V21H38.5V24.815C31.5 25.97 28 30.485 28 35C28 38.92 29.82 45.5 42 45.5C49 45.5 49 47.88 49 49C49 50.12 46.83 52.5 42 52.5Z" fill="#1D2630"/>
<path d="M17.5 7H7V14H14V73.5C14 74.4283 14.3687 75.3185 15.0251 75.9749C15.6815 76.6313 16.5717 77 17.5 77H66.5C67.4283 77 68.3185 76.6313 68.9749 75.9749C69.6313 75.3185 70 74.4283 70 73.5V14H77V7H17.5ZM63 70H21V14H63V70Z" fill="#1D2630"/>
</svg>
