<svg width="20" height="20" viewBox="0 0 20 20" fill="none" xmlns="http://www.w3.org/2000/svg">
<path d="M10.834 5.83334H9.16732V9.16668H5.83398V10.8333H9.16732V14.1667H10.834V10.8333H14.1673V9.16668H10.834V5.83334Z" fill="#EAECEF"/>
<path d="M9.99935 1.66666C5.40435 1.66666 1.66602 5.40499 1.66602 9.99999C1.66602 14.595 5.40435 18.3333 9.99935 18.3333C14.5943 18.3333 18.3327 14.595 18.3327 9.99999C18.3327 5.40499 14.5943 1.66666 9.99935 1.66666ZM9.99935 16.6667C6.32352 16.6667 3.33268 13.6758 3.33268 9.99999C3.33268 6.32416 6.32352 3.33332 9.99935 3.33332C13.6752 3.33332 16.666 6.32416 16.666 9.99999C16.666 13.6758 13.6752 16.6667 9.99935 16.6667Z" fill="#EAECEF"/>
</svg>
