<svg width="25" height="25" viewBox="0 0 25 25" fill="none" xmlns="http://www.w3.org/2000/svg">
<path d="M13.541 7.29166H11.4577V11.4583H7.29102V13.5417H11.4577V17.7083H13.541V13.5417H17.7077V11.4583H13.541V7.29166Z" fill="#0072FF"/>
<path d="M12.5007 2.08334C6.7569 2.08334 2.08398 6.75626 2.08398 12.5C2.08398 18.2438 6.7569 22.9167 12.5007 22.9167C18.2444 22.9167 22.9173 18.2438 22.9173 12.5C22.9173 6.75626 18.2444 2.08334 12.5007 2.08334ZM12.5007 20.8333C7.90586 20.8333 4.16732 17.0948 4.16732 12.5C4.16732 7.90522 7.90586 4.16668 12.5007 4.16668C17.0954 4.16668 20.834 7.90522 20.834 12.5C20.834 17.0948 17.0954 20.8333 12.5007 20.8333Z" fill="#0072FF"/>
</svg>
