<svg width="45" height="44" viewBox="0 0 45 44" fill="none" xmlns="http://www.w3.org/2000/svg">
<path d="M39 9.16667C39 8.19421 38.6137 7.26157 37.9261 6.57394C37.2384 5.88631 36.3058 5.5 35.3333 5.5H9.66667C8.69421 5.5 7.76157 5.88631 7.07394 6.57394C6.38631 7.26157 6 8.19421 6 9.16667V34.8333C6 35.8058 6.38631 36.7384 7.07394 37.4261C7.76157 38.1137 8.69421 38.5 9.66667 38.5H35.3333C36.3058 38.5 37.2384 38.1137 37.9261 37.4261C38.6137 36.7384 39 35.8058 39 34.8333V9.16667ZM30.2128 27.1205L27.6205 29.7128L22.5 24.5923L17.3795 29.7128L14.7872 27.1205L19.9077 22L14.7872 16.8795L17.3795 14.2872L22.5 19.4077L27.6205 14.2872L30.2128 16.8795L25.0923 22L30.2128 27.1205Z" fill="#DC3C3C"/>
</svg>
