<svg width="41" height="40" viewBox="0 0 41 40" fill="none" xmlns="http://www.w3.org/2000/svg">
<path d="M36.7964 19.3452C36.4597 18.5318 35.7381 18.3368 35.2497 18.2902V13.3335C35.2497 11.4952 33.7547 10.0002 31.9164 10.0002H21.9164V7.6835C22.4247 7.22683 22.7497 6.57016 22.7497 5.8335C22.7497 5.17045 22.4863 4.53457 22.0175 4.06573C21.5487 3.59689 20.9128 3.3335 20.2497 3.3335C19.5867 3.3335 18.9508 3.59689 18.482 4.06573C18.0131 4.53457 17.7497 5.17045 17.7497 5.8335C17.7497 6.57016 18.0747 7.22683 18.5831 7.6835V10.0002H8.58307C6.74474 10.0002 5.24974 11.4952 5.24974 13.3335V18.3285L5.11307 18.3385C4.69303 18.3688 4.30003 18.557 4.0131 18.8653C3.72617 19.1736 3.56658 19.579 3.56641 20.0002V23.3335C3.56641 23.7755 3.742 24.1994 4.05456 24.512C4.36712 24.8246 4.79105 25.0002 5.23307 25.0002H5.24974V33.3335C5.24974 35.1718 6.74474 36.6668 8.58307 36.6668H31.9164C33.7547 36.6668 35.2497 35.1718 35.2497 33.3335V25.0002C35.6918 25.0002 36.1157 24.8246 36.4283 24.512C36.7408 24.1994 36.9164 23.7755 36.9164 23.3335V20.1035C36.9356 19.8448 36.8945 19.5853 36.7964 19.3452ZM8.58307 33.3335V13.3335H31.9164L31.9181 19.9935L31.9164 20.0002V23.3335L31.9181 23.3418L31.9197 33.3335H8.58307Z" fill="#EAECEF"/>
<path d="M14.416 23.3332C15.7967 23.3332 16.916 21.8408 16.916 19.9998C16.916 18.1589 15.7967 16.6665 14.416 16.6665C13.0353 16.6665 11.916 18.1589 11.916 19.9998C11.916 21.8408 13.0353 23.3332 14.416 23.3332Z" fill="#EAECEF"/>
<path d="M26.084 23.3332C27.4647 23.3332 28.584 21.8408 28.584 19.9998C28.584 18.1589 27.4647 16.6665 26.084 16.6665C24.7033 16.6665 23.584 18.1589 23.584 19.9998C23.584 21.8408 24.7033 23.3332 26.084 23.3332Z" fill="#EAECEF"/>
<path d="M13.584 26.6665H26.9173V29.9998H13.584V26.6665Z" fill="#EAECEF"/>
</svg>
