<svg width="215" height="132" viewBox="0 0 215 132" fill="none" xmlns="http://www.w3.org/2000/svg">
<rect width="215" height="132" rx="10" fill="#2D3D52"/>
<path d="M30 13H14C12.897 13 12 13.897 12 15V29C12 30.103 12.897 31 14 31H30C31.103 31 32 30.103 32 29V15C32 13.897 31.103 13 30 13ZM14 29V15H30L30.002 29H14Z" fill="#EAECEF"/>
<path d="M16 17H28V19H16V17ZM16 21H28V23H16V21ZM16 25H22V27H16V25Z" fill="#EAECEF"/>
<path d="M51.8149 16.0869V17.7422H46.7686V27H44.791V16.0869H51.8149ZM54.0854 27.1685C53.563 27.1685 53.0942 27.0757 52.6792 26.8901C52.2642 26.6997 51.937 26.4214 51.6978 26.0552C51.4585 25.689 51.3389 25.2373 51.3389 24.7002C51.3389 24.2412 51.4243 23.8604 51.5952 23.5576C51.7661 23.2549 51.998 23.0132 52.291 22.8325C52.5889 22.6519 52.9233 22.5151 53.2944 22.4224C53.6655 22.3247 54.0488 22.2563 54.4443 22.2173C54.9277 22.1636 55.3184 22.1172 55.6162 22.0781C55.9141 22.0391 56.1289 21.9756 56.2607 21.8877C56.3975 21.7998 56.4658 21.6631 56.4658 21.4775V21.4409C56.4658 21.0454 56.3486 20.7378 56.1143 20.5181C55.8799 20.2983 55.5381 20.1885 55.0889 20.1885C54.6152 20.1885 54.2393 20.291 53.9609 20.4961C53.6875 20.7012 53.502 20.9429 53.4043 21.2212L51.6099 20.9648C51.7515 20.4668 51.9858 20.0518 52.313 19.7197C52.6401 19.3828 53.0381 19.1313 53.5068 18.9653C53.9805 18.7944 54.5029 18.709 55.0742 18.709C55.4648 18.709 55.8555 18.7554 56.2461 18.8481C56.6367 18.936 56.9956 19.0874 57.3228 19.3022C57.6499 19.5171 57.9111 19.8052 58.1064 20.1665C58.3018 20.5278 58.3994 20.9795 58.3994 21.5215V27H56.5464V25.8721H56.4878C56.3706 26.0967 56.2046 26.3091 55.9897 26.5093C55.7798 26.7046 55.5161 26.8633 55.1987 26.9854C54.8862 27.1074 54.5151 27.1685 54.0854 27.1685ZM54.5762 25.7476C54.9668 25.7476 55.3037 25.6719 55.5869 25.5205C55.8701 25.3643 56.0898 25.1592 56.2461 24.9053C56.4023 24.6465 56.4805 24.3657 56.4805 24.063V23.1035C56.417 23.1523 56.3145 23.1987 56.1729 23.2427C56.0312 23.2817 55.8701 23.3184 55.6895 23.3525C55.5088 23.3867 55.3306 23.416 55.1548 23.4404C54.9839 23.4648 54.835 23.4844 54.708 23.499C54.4199 23.5381 54.1611 23.604 53.9316 23.6968C53.707 23.7847 53.5288 23.9067 53.397 24.063C53.2651 24.2192 53.1992 24.4219 53.1992 24.6709C53.1992 25.0273 53.3286 25.2959 53.5874 25.4766C53.8462 25.6572 54.1758 25.7476 54.5762 25.7476ZM61.6807 24.3853L64.9619 18.8115H66.9395V27H65.0864V21.4189L61.8125 27H59.8276V18.8115H61.6807V24.3853ZM63.3726 17.874C62.6353 17.874 62.0347 17.6763 61.5708 17.2808C61.1118 16.8853 60.8823 16.3677 60.8823 15.728H62.3252C62.3252 16.0356 62.4204 16.2847 62.6108 16.4751C62.8013 16.6606 63.0552 16.7534 63.3726 16.7534C63.6899 16.7534 63.9438 16.6606 64.1343 16.4751C64.3247 16.2847 64.4199 16.0356 64.4199 15.728H65.8701C65.8701 16.3677 65.6382 16.8853 65.1743 17.2808C64.7153 17.6763 64.1147 17.874 63.3726 17.874ZM67.6426 29.3804V25.4106H68.2871C68.4629 25.2788 68.6094 25.0981 68.7266 24.8687C68.8438 24.6343 68.939 24.3584 69.0122 24.041C69.0903 23.7188 69.1538 23.3599 69.2026 22.9644C69.2563 22.5688 69.3027 22.144 69.3418 21.6899L69.5762 18.8115H75.4941V25.4106H76.7539V29.3804H74.8936V27H69.5396V29.3804H67.6426ZM70.272 25.4106H73.6484V20.3716H71.2534L71.1216 21.6899C71.0532 22.5542 70.958 23.2964 70.8359 23.9165C70.7188 24.5317 70.5308 25.0298 70.272 25.4106ZM80.0791 29.3804V25.4106H80.7236C80.8994 25.2788 81.0459 25.0981 81.1631 24.8687C81.2803 24.6343 81.3755 24.3584 81.4487 24.041C81.5269 23.7188 81.5903 23.3599 81.6392 22.9644C81.6929 22.5688 81.7393 22.144 81.7783 21.6899L82.0127 18.8115H87.9307V25.4106H89.1904V29.3804H87.3301V27H81.9761V29.3804H80.0791ZM82.7085 25.4106H86.085V20.3716H83.6899L83.5581 21.6899C83.4897 22.5542 83.3945 23.2964 83.2725 23.9165C83.1553 24.5317 82.9673 25.0298 82.7085 25.4106ZM89.5127 27L89.5054 25.4106H89.7764C90.0645 25.4106 90.2915 25.3228 90.4575 25.147C90.6284 24.9712 90.7578 24.6685 90.8457 24.2388C90.9336 23.8042 90.9922 23.2061 91.0215 22.4443L91.1606 18.8115H97.1299V27H95.2622V20.3936H92.9185L92.7866 23.0449C92.7524 23.7236 92.6768 24.312 92.5596 24.8101C92.4424 25.3081 92.2739 25.7207 92.0542 26.0479C91.8394 26.3701 91.5708 26.6094 91.2485 26.7656C90.9263 26.9219 90.5454 27 90.106 27H89.5127ZM103.392 27V20.3862H101.642C101.202 20.3862 100.863 20.4888 100.624 20.6938C100.389 20.8989 100.274 21.1553 100.279 21.4629C100.274 21.7656 100.384 22.0171 100.609 22.2173C100.833 22.4126 101.158 22.5127 101.583 22.5176H104V23.9238H101.583C100.929 23.9238 100.365 23.8213 99.8911 23.6162C99.4175 23.4062 99.0513 23.1133 98.7925 22.7373C98.5386 22.3613 98.4116 21.9194 98.4116 21.4116C98.4116 20.8892 98.541 20.4351 98.7998 20.0493C99.0635 19.6587 99.437 19.356 99.9204 19.1411C100.404 18.9214 100.978 18.8115 101.642 18.8115H105.201V27H103.392ZM98.104 27L100.396 22.7959H102.301L100.008 27H98.104ZM115.404 22.1074V23.6895H111.061V22.1074H115.404ZM111.646 18.8115V27H109.793V18.8115H111.646ZM116.678 18.8115V27H114.825V18.8115H116.678ZM120.458 27.1685C119.935 27.1685 119.466 27.0757 119.051 26.8901C118.636 26.6997 118.309 26.4214 118.07 26.0552C117.831 25.689 117.711 25.2373 117.711 24.7002C117.711 24.2412 117.796 23.8604 117.967 23.5576C118.138 23.2549 118.37 23.0132 118.663 22.8325C118.961 22.6519 119.295 22.5151 119.667 22.4224C120.038 22.3247 120.421 22.2563 120.816 22.2173C121.3 22.1636 121.69 22.1172 121.988 22.0781C122.286 22.0391 122.501 21.9756 122.633 21.8877C122.77 21.7998 122.838 21.6631 122.838 21.4775V21.4409C122.838 21.0454 122.721 20.7378 122.486 20.5181C122.252 20.2983 121.91 20.1885 121.461 20.1885C120.987 20.1885 120.611 20.291 120.333 20.4961C120.06 20.7012 119.874 20.9429 119.776 21.2212L117.982 20.9648C118.124 20.4668 118.358 20.0518 118.685 19.7197C119.012 19.3828 119.41 19.1313 119.879 18.9653C120.353 18.7944 120.875 18.709 121.446 18.709C121.837 18.709 122.228 18.7554 122.618 18.8481C123.009 18.936 123.368 19.0874 123.695 19.3022C124.022 19.5171 124.283 19.8052 124.479 20.1665C124.674 20.5278 124.771 20.9795 124.771 21.5215V27H122.918V25.8721H122.86C122.743 26.0967 122.577 26.3091 122.362 26.5093C122.152 26.7046 121.888 26.8633 121.571 26.9854C121.258 27.1074 120.887 27.1685 120.458 27.1685ZM120.948 25.7476C121.339 25.7476 121.676 25.6719 121.959 25.5205C122.242 25.3643 122.462 25.1592 122.618 24.9053C122.774 24.6465 122.853 24.3657 122.853 24.063V23.1035C122.789 23.1523 122.687 23.1987 122.545 23.2427C122.403 23.2817 122.242 23.3184 122.062 23.3525C121.881 23.3867 121.703 23.416 121.527 23.4404C121.356 23.4648 121.207 23.4844 121.08 23.499C120.792 23.5381 120.533 23.604 120.304 23.6968C120.079 23.7847 119.901 23.9067 119.769 24.063C119.637 24.2192 119.571 24.4219 119.571 24.6709C119.571 25.0273 119.701 25.2959 119.959 25.4766C120.218 25.6572 120.548 25.7476 120.948 25.7476ZM133.033 18.8115V27H131.173V18.8115H133.033ZM132.169 22.5176V24.0996C131.959 24.1826 131.72 24.2607 131.451 24.334C131.188 24.4072 130.909 24.4658 130.616 24.5098C130.323 24.5537 130.033 24.5757 129.745 24.5757C128.651 24.5757 127.787 24.3315 127.152 23.8433C126.517 23.3501 126.2 22.5811 126.2 21.5361V18.8042H128.038V21.5361C128.043 21.8828 128.106 22.1636 128.229 22.3784C128.355 22.5933 128.543 22.7495 128.792 22.8472C129.046 22.9448 129.364 22.9937 129.745 22.9937C130.169 22.9937 130.572 22.9521 130.953 22.8691C131.339 22.7812 131.744 22.6641 132.169 22.5176ZM136.314 24.3853L139.596 18.8115H141.573V27H139.72V21.4189L136.446 27H134.461V18.8115H136.314V24.3853ZM148.612 22.1074V23.6895H144.269V22.1074H148.612ZM144.854 18.8115V27H143.001V18.8115H144.854ZM149.886 18.8115V27H148.033V18.8115H149.886ZM153.666 27.1685C153.143 27.1685 152.674 27.0757 152.259 26.8901C151.844 26.6997 151.517 26.4214 151.278 26.0552C151.039 25.689 150.919 25.2373 150.919 24.7002C150.919 24.2412 151.004 23.8604 151.175 23.5576C151.346 23.2549 151.578 23.0132 151.871 22.8325C152.169 22.6519 152.503 22.5151 152.875 22.4224C153.246 22.3247 153.629 22.2563 154.024 22.2173C154.508 22.1636 154.898 22.1172 155.196 22.0781C155.494 22.0391 155.709 21.9756 155.841 21.8877C155.978 21.7998 156.046 21.6631 156.046 21.4775V21.4409C156.046 21.0454 155.929 20.7378 155.694 20.5181C155.46 20.2983 155.118 20.1885 154.669 20.1885C154.195 20.1885 153.819 20.291 153.541 20.4961C153.268 20.7012 153.082 20.9429 152.984 21.2212L151.19 20.9648C151.332 20.4668 151.566 20.0518 151.893 19.7197C152.22 19.3828 152.618 19.1313 153.087 18.9653C153.561 18.7944 154.083 18.709 154.654 18.709C155.045 18.709 155.436 18.7554 155.826 18.8481C156.217 18.936 156.576 19.0874 156.903 19.3022C157.23 19.5171 157.491 19.8052 157.687 20.1665C157.882 20.5278 157.979 20.9795 157.979 21.5215V27H156.126V25.8721H156.068C155.951 26.0967 155.785 26.3091 155.57 26.5093C155.36 26.7046 155.096 26.8633 154.779 26.9854C154.466 27.1074 154.095 27.1685 153.666 27.1685ZM154.156 25.7476C154.547 25.7476 154.884 25.6719 155.167 25.5205C155.45 25.3643 155.67 25.1592 155.826 24.9053C155.982 24.6465 156.061 24.3657 156.061 24.063V23.1035C155.997 23.1523 155.895 23.1987 155.753 23.2427C155.611 23.2817 155.45 23.3184 155.27 23.3525C155.089 23.3867 154.911 23.416 154.735 23.4404C154.564 23.4648 154.415 23.4844 154.288 23.499C154 23.5381 153.741 23.604 153.512 23.6968C153.287 23.7847 153.109 23.9067 152.977 24.063C152.845 24.2192 152.779 24.4219 152.779 24.6709C152.779 25.0273 152.909 25.2959 153.167 25.4766C153.426 25.6572 153.756 25.7476 154.156 25.7476ZM163.722 22.1733V23.7627H159.327V22.1733H163.722ZM160.851 18.8115V27H158.917V18.8115H160.851ZM166.197 27.1611C165.411 27.1611 164.728 26.9829 164.146 26.6265C163.57 26.2651 163.124 25.7671 162.806 25.1323C162.494 24.4927 162.337 23.7578 162.337 22.9277C162.337 22.0928 162.494 21.3579 162.806 20.7231C163.124 20.0884 163.57 19.5952 164.146 19.2437C164.728 18.8872 165.411 18.709 166.197 18.709C166.983 18.709 167.665 18.8872 168.241 19.2437C168.822 19.5952 169.269 20.0884 169.581 20.7231C169.898 21.3579 170.06 22.0928 170.064 22.9277C170.06 23.7578 169.898 24.4927 169.581 25.1323C169.269 25.7671 168.822 26.2651 168.241 26.6265C167.665 26.9829 166.983 27.1611 166.197 27.1611ZM166.197 25.5645C166.666 25.5645 167.047 25.4473 167.34 25.2129C167.633 24.9736 167.848 24.6562 167.984 24.2607C168.121 23.8604 168.189 23.416 168.189 22.9277C168.189 22.4346 168.121 21.9902 167.984 21.5947C167.848 21.1943 167.633 20.877 167.34 20.6426C167.047 20.4082 166.666 20.291 166.197 20.291C165.729 20.291 165.345 20.4082 165.047 20.6426C164.754 20.877 164.54 21.1919 164.403 21.5874C164.266 21.9829 164.198 22.4297 164.198 22.9277C164.198 23.4209 164.266 23.8677 164.403 24.2681C164.54 24.6636 164.754 24.9785 165.047 25.2129C165.345 25.4473 165.729 25.5645 166.197 25.5645ZM183.504 25.418L183.343 29.3438H181.527V27H180.56V25.418H183.504ZM171.214 18.8115H173.067V25.4106H175.638V18.8115H177.506V25.4106H180.069V18.8115H181.944V27H171.214V18.8115ZM186.266 24.3853L189.547 18.8115H191.524V27H189.671V21.4189L186.397 27H184.413V18.8115H186.266V24.3853ZM194.527 18.8115L196.175 21.8438L197.853 18.8115H199.896L197.435 22.9131L199.94 27H197.911L196.175 24.0557L194.469 27H192.425L194.908 22.9131L192.484 18.8115H194.527Z" fill="white"/>
<path d="M20 71L26 66L20 61V71Z" fill="#EAECEF"/>
<path d="M22 56C16.486 56 12 60.486 12 66C12 71.514 16.486 76 22 76C27.514 76 32 71.514 32 66C32 60.486 27.514 56 22 56ZM22 74C17.589 74 14 70.411 14 66C14 61.589 17.589 58 22 58C26.411 58 30 61.589 30 66C30 70.411 26.411 74 22 74Z" fill="#EAECEF"/>
<path d="M49.5371 71.1465C48.585 71.1465 47.728 70.9243 46.9663 70.48C46.2095 70.0356 45.6113 69.396 45.1719 68.561C44.7373 67.7261 44.52 66.7227 44.52 65.5508C44.52 64.374 44.7373 63.3682 45.1719 62.5332C45.6113 61.6934 46.2095 61.0513 46.9663 60.6069C47.728 60.1626 48.585 59.9404 49.5371 59.9404C50.4941 59.9404 51.3486 60.1626 52.1006 60.6069C52.8525 61.0513 53.4482 61.6934 53.8877 62.5332C54.3271 63.3682 54.5469 64.374 54.5469 65.5508C54.5469 66.7227 54.3271 67.7261 53.8877 68.561C53.4482 69.396 52.8525 70.0356 52.1006 70.48C51.3486 70.9243 50.4941 71.1465 49.5371 71.1465ZM49.5371 69.374C50.1279 69.374 50.6504 69.2275 51.1045 68.9346C51.5586 68.6416 51.915 68.2119 52.1738 67.6455C52.4326 67.0742 52.562 66.376 52.562 65.5508C52.562 64.7207 52.4326 64.02 52.1738 63.4487C51.915 62.8774 51.5586 62.4453 51.1045 62.1523C50.6504 61.8594 50.1279 61.7129 49.5371 61.7129C48.9463 61.7129 48.4214 61.8594 47.9624 62.1523C47.5083 62.4453 47.1519 62.8774 46.8931 63.4487C46.6343 64.02 46.5049 64.7207 46.5049 65.5508C46.5049 66.376 46.6343 67.0742 46.8931 67.6455C47.1519 68.2119 47.5083 68.6416 47.9624 68.9346C48.4214 69.2275 48.9463 69.374 49.5371 69.374ZM62.3105 59.7939L62.9917 61.0317C62.7524 61.2417 62.4839 61.3931 62.186 61.4858C61.8931 61.5786 61.5464 61.6396 61.146 61.6689C60.7505 61.6934 60.2817 61.7104 59.7397 61.7202C59.1294 61.7349 58.6313 61.8496 58.2456 62.0645C57.8599 62.2793 57.562 62.6064 57.3521 63.0459C57.147 63.4854 57.0151 64.0469 56.9565 64.7305H57.0444C57.2983 64.2275 57.6548 63.8442 58.1138 63.5806C58.5776 63.3169 59.1196 63.1851 59.7397 63.1851C60.4185 63.1851 61.0166 63.3364 61.5342 63.6392C62.0566 63.9419 62.4644 64.3813 62.7573 64.9575C63.0552 65.5337 63.2017 66.2319 63.1968 67.0522C63.2017 67.8921 63.0454 68.6196 62.728 69.2349C62.4106 69.8501 61.9614 70.3262 61.3804 70.6631C60.7993 70.9951 60.1133 71.1611 59.3223 71.1611C58.126 71.1611 57.1763 70.7729 56.4731 69.9966C55.7749 69.2153 55.4233 68.0752 55.4185 66.5762V65.8511C55.4233 63.9224 55.7822 62.4868 56.4951 61.5444C57.2129 60.5972 58.2773 60.1113 59.6885 60.0869C60.1084 60.0771 60.4844 60.0747 60.8164 60.0796C61.1484 60.0845 61.439 60.0698 61.688 60.0356C61.937 59.9966 62.1445 59.916 62.3105 59.7939ZM59.3296 69.623C59.7251 69.6182 60.0645 69.5156 60.3477 69.3154C60.6357 69.1104 60.8579 68.8198 61.0142 68.4438C61.1704 68.0679 61.2461 67.6211 61.2412 67.1035C61.2461 66.5957 61.1704 66.1636 61.0142 65.8071C60.8579 65.4458 60.6357 65.1724 60.3477 64.9868C60.0596 64.8013 59.7129 64.7085 59.3076 64.7085C59.0098 64.7085 58.7437 64.7622 58.5093 64.8696C58.2749 64.9722 58.0723 65.126 57.9014 65.3311C57.7354 65.5361 57.6084 65.7876 57.5205 66.0854C57.4326 66.3833 57.3862 66.7227 57.3813 67.1035C57.3765 67.8701 57.5474 68.4805 57.894 68.9346C58.2407 69.3887 58.7192 69.6182 59.3296 69.623ZM65.4673 74.0615C65.2036 74.0664 64.9595 74.0469 64.7349 74.0029C64.5151 73.9639 64.3369 73.9175 64.2002 73.8638L64.6543 72.3623L64.7495 72.3916C65.1401 72.4941 65.4722 72.5015 65.7456 72.4136C66.0239 72.3257 66.2461 72.0596 66.4121 71.6152L66.5732 71.1758L63.6143 62.8115H65.6577L67.54 69.0005H67.6279L69.5176 62.8115H71.5757L68.2944 71.9888C68.1431 72.4233 67.9429 72.7944 67.6938 73.1021C67.4448 73.4146 67.1372 73.6514 66.771 73.8125C66.4048 73.9785 65.9702 74.0615 65.4673 74.0615ZM78.9512 62.8115V71H77.0908V62.8115H78.9512ZM78.0869 66.5176V68.0996C77.877 68.1826 77.6377 68.2607 77.3691 68.334C77.1055 68.4072 76.8271 68.4658 76.5342 68.5098C76.2412 68.5537 75.9507 68.5757 75.6626 68.5757C74.5688 68.5757 73.7046 68.3315 73.0698 67.8433C72.4351 67.3501 72.1177 66.5811 72.1177 65.5361V62.8042H73.9561V65.5361C73.9609 65.8828 74.0244 66.1636 74.1465 66.3784C74.2734 66.5933 74.4614 66.7495 74.7104 66.8472C74.9644 66.9448 75.2817 66.9937 75.6626 66.9937C76.0874 66.9937 76.4902 66.9521 76.8711 66.8691C77.2568 66.7812 77.6621 66.6641 78.0869 66.5176ZM82.7378 71.1685C82.2153 71.1685 81.7466 71.0757 81.3315 70.8901C80.9165 70.6997 80.5894 70.4214 80.3501 70.0552C80.1108 69.689 79.9912 69.2373 79.9912 68.7002C79.9912 68.2412 80.0767 67.8604 80.2476 67.5576C80.4185 67.2549 80.6504 67.0132 80.9434 66.8325C81.2412 66.6519 81.5757 66.5151 81.9468 66.4224C82.3179 66.3247 82.7012 66.2563 83.0967 66.2173C83.5801 66.1636 83.9707 66.1172 84.2686 66.0781C84.5664 66.0391 84.7812 65.9756 84.9131 65.8877C85.0498 65.7998 85.1182 65.6631 85.1182 65.4775V65.4409C85.1182 65.0454 85.001 64.7378 84.7666 64.5181C84.5322 64.2983 84.1904 64.1885 83.7412 64.1885C83.2676 64.1885 82.8916 64.291 82.6133 64.4961C82.3398 64.7012 82.1543 64.9429 82.0566 65.2212L80.2622 64.9648C80.4038 64.4668 80.6382 64.0518 80.9653 63.7197C81.2925 63.3828 81.6904 63.1313 82.1592 62.9653C82.6328 62.7944 83.1553 62.709 83.7266 62.709C84.1172 62.709 84.5078 62.7554 84.8984 62.8481C85.2891 62.936 85.6479 63.0874 85.9751 63.3022C86.3022 63.5171 86.5635 63.8052 86.7588 64.1665C86.9541 64.5278 87.0518 64.9795 87.0518 65.5215V71H85.1987V69.8721H85.1401C85.0229 70.0967 84.8569 70.3091 84.6421 70.5093C84.4321 70.7046 84.1685 70.8633 83.8511 70.9854C83.5386 71.1074 83.1675 71.1685 82.7378 71.1685ZM83.2285 69.7476C83.6191 69.7476 83.9561 69.6719 84.2393 69.5205C84.5225 69.3643 84.7422 69.1592 84.8984 68.9053C85.0547 68.6465 85.1328 68.3657 85.1328 68.063V67.1035C85.0693 67.1523 84.9668 67.1987 84.8252 67.2427C84.6836 67.2817 84.5225 67.3184 84.3418 67.3525C84.1611 67.3867 83.9829 67.416 83.8071 67.4404C83.6362 67.4648 83.4873 67.4844 83.3604 67.499C83.0723 67.5381 82.8135 67.604 82.584 67.6968C82.3594 67.7847 82.1812 67.9067 82.0493 68.063C81.9175 68.2192 81.8516 68.4219 81.8516 68.6709C81.8516 69.0273 81.981 69.2959 82.2397 69.4766C82.4985 69.6572 82.8281 69.7476 83.2285 69.7476ZM92.7939 66.1733V67.7627H88.3994V66.1733H92.7939ZM89.9229 62.8115V71H87.9893V62.8115H89.9229ZM95.2695 71.1611C94.4834 71.1611 93.7998 70.9829 93.2188 70.6265C92.6426 70.2651 92.1958 69.7671 91.8784 69.1323C91.5659 68.4927 91.4097 67.7578 91.4097 66.9277C91.4097 66.0928 91.5659 65.3579 91.8784 64.7231C92.1958 64.0884 92.6426 63.5952 93.2188 63.2437C93.7998 62.8872 94.4834 62.709 95.2695 62.709C96.0557 62.709 96.7368 62.8872 97.313 63.2437C97.894 63.5952 98.3408 64.0884 98.6533 64.7231C98.9707 65.3579 99.1318 66.0928 99.1367 66.9277C99.1318 67.7578 98.9707 68.4927 98.6533 69.1323C98.3408 69.7671 97.894 70.2651 97.313 70.6265C96.7368 70.9829 96.0557 71.1611 95.2695 71.1611ZM95.2695 69.5645C95.7383 69.5645 96.1191 69.4473 96.4121 69.2129C96.7051 68.9736 96.9199 68.6562 97.0566 68.2607C97.1934 67.8604 97.2617 67.416 97.2617 66.9277C97.2617 66.4346 97.1934 65.9902 97.0566 65.5947C96.9199 65.1943 96.7051 64.877 96.4121 64.6426C96.1191 64.4082 95.7383 64.291 95.2695 64.291C94.8008 64.291 94.4175 64.4082 94.1196 64.6426C93.8267 64.877 93.6118 65.1919 93.4751 65.5874C93.3384 65.9829 93.27 66.4297 93.27 66.9277C93.27 67.4209 93.3384 67.8677 93.4751 68.2681C93.6118 68.6636 93.8267 68.9785 94.1196 69.2129C94.4175 69.4473 94.8008 69.5645 95.2695 69.5645ZM112.577 69.418L112.416 73.3438H110.599V71H109.632V69.418H112.577ZM100.287 62.8115H102.14V69.4106H104.71V62.8115H106.578V69.4106H109.142V62.8115H111.017V71H100.287V62.8115ZM117.022 71.1611C116.202 71.1611 115.494 70.9902 114.898 70.6484C114.303 70.3018 113.844 69.8135 113.521 69.1836C113.204 68.5537 113.045 67.8115 113.045 66.957C113.045 66.1123 113.204 65.3726 113.521 64.7378C113.839 64.0981 114.286 63.6001 114.862 63.2437C115.438 62.8872 116.117 62.709 116.898 62.709C117.401 62.709 117.877 62.7896 118.326 62.9507C118.78 63.1118 119.181 63.3608 119.527 63.6978C119.879 64.0347 120.155 64.4644 120.355 64.9868C120.555 65.5044 120.655 66.1221 120.655 66.8398V67.4404H113.946V66.144H119.696L118.795 66.5249C118.795 66.061 118.724 65.6582 118.583 65.3164C118.441 64.9697 118.231 64.6987 117.953 64.5034C117.674 64.3081 117.328 64.2104 116.913 64.2104C116.498 64.2104 116.144 64.3081 115.851 64.5034C115.558 64.6987 115.335 64.9624 115.184 65.2944C115.033 65.6216 114.957 65.9878 114.957 66.3931V67.2939C114.957 67.792 115.042 68.2192 115.213 68.5757C115.389 68.9272 115.633 69.1958 115.946 69.3813C116.263 69.5669 116.632 69.6597 117.052 69.6597C117.325 69.6597 117.574 69.6206 117.799 69.5425C118.028 69.4644 118.224 69.3472 118.385 69.1909C118.551 69.0298 118.678 68.832 118.766 68.5977L120.567 68.8101C120.45 69.2837 120.233 69.6987 119.916 70.0552C119.603 70.4067 119.2 70.6802 118.707 70.8755C118.219 71.0659 117.657 71.1611 117.022 71.1611ZM125.328 71.1611C124.508 71.1611 123.8 70.9902 123.204 70.6484C122.608 70.3018 122.149 69.8135 121.827 69.1836C121.51 68.5537 121.351 67.8115 121.351 66.957C121.351 66.1123 121.51 65.3726 121.827 64.7378C122.145 64.0981 122.591 63.6001 123.167 63.2437C123.744 62.8872 124.422 62.709 125.204 62.709C125.707 62.709 126.183 62.7896 126.632 62.9507C127.086 63.1118 127.486 63.3608 127.833 63.6978C128.185 64.0347 128.46 64.4644 128.661 64.9868C128.861 65.5044 128.961 66.1221 128.961 66.8398V67.4404H122.252V66.144H128.001L127.101 66.5249C127.101 66.061 127.03 65.6582 126.888 65.3164C126.747 64.9697 126.537 64.6987 126.258 64.5034C125.98 64.3081 125.633 64.2104 125.218 64.2104C124.803 64.2104 124.449 64.3081 124.156 64.5034C123.863 64.6987 123.641 64.9624 123.49 65.2944C123.338 65.6216 123.263 65.9878 123.263 66.3931V67.2939C123.263 67.792 123.348 68.2192 123.519 68.5757C123.695 68.9272 123.939 69.1958 124.251 69.3813C124.569 69.5669 124.938 69.6597 125.357 69.6597C125.631 69.6597 125.88 69.6206 126.104 69.5425C126.334 69.4644 126.529 69.3472 126.69 69.1909C126.856 69.0298 126.983 68.832 127.071 68.5977L128.873 68.8101C128.756 69.2837 128.539 69.6987 128.221 70.0552C127.909 70.4067 127.506 70.6802 127.013 70.8755C126.524 71.0659 125.963 71.1611 125.328 71.1611ZM133.172 71V62.8115H136.607C137.574 62.8164 138.338 63.0142 138.9 63.4048C139.466 63.7905 139.75 64.3276 139.75 65.0161C139.75 65.48 139.591 65.856 139.273 66.144C138.956 66.4272 138.526 66.6201 137.984 66.7227C138.409 66.7568 138.783 66.8667 139.105 67.0522C139.432 67.2329 139.688 67.4697 139.874 67.7627C140.06 68.0557 140.152 68.395 140.152 68.7808C140.152 69.23 140.033 69.623 139.793 69.96C139.559 70.292 139.217 70.5483 138.768 70.729C138.324 70.9097 137.779 71 137.135 71H133.172ZM134.974 69.4766H137.135C137.491 69.4814 137.77 69.4009 137.97 69.2349C138.175 69.064 138.275 68.832 138.27 68.5391C138.275 68.2021 138.175 67.9385 137.97 67.748C137.77 67.5527 137.491 67.4551 137.135 67.4551H134.974V69.4766ZM134.974 66.21H136.644C137.035 66.2051 137.342 66.1196 137.567 65.9536C137.792 65.7876 137.904 65.5605 137.904 65.2725C137.904 64.9844 137.789 64.7622 137.56 64.606C137.33 64.4448 137.013 64.3643 136.607 64.3643H134.974V66.21ZM143.038 68.3853L146.319 62.8115H148.297V71H146.444V65.4189L143.17 71H141.185V62.8115H143.038V68.3853ZM149 73.3804V69.4106H149.645C149.82 69.2788 149.967 69.0981 150.084 68.8687C150.201 68.6343 150.296 68.3584 150.37 68.041C150.448 67.7188 150.511 67.3599 150.56 66.9644C150.614 66.5688 150.66 66.144 150.699 65.6899L150.934 62.8115H156.852V69.4106H158.111V73.3804H156.251V71H150.897V73.3804H149ZM151.629 69.4106H155.006V64.3716H152.611L152.479 65.6899C152.411 66.5542 152.315 67.2964 152.193 67.9165C152.076 68.5317 151.888 69.0298 151.629 69.4106ZM162.623 71.1611C161.803 71.1611 161.095 70.9902 160.499 70.6484C159.903 70.3018 159.444 69.8135 159.122 69.1836C158.805 68.5537 158.646 67.8115 158.646 66.957C158.646 66.1123 158.805 65.3726 159.122 64.7378C159.439 64.0981 159.886 63.6001 160.462 63.2437C161.039 62.8872 161.717 62.709 162.499 62.709C163.001 62.709 163.478 62.7896 163.927 62.9507C164.381 63.1118 164.781 63.3608 165.128 63.6978C165.479 64.0347 165.755 64.4644 165.956 64.9868C166.156 65.5044 166.256 66.1221 166.256 66.8398V67.4404H159.547V66.144H165.296L164.396 66.5249C164.396 66.061 164.325 65.6582 164.183 65.3164C164.042 64.9697 163.832 64.6987 163.553 64.5034C163.275 64.3081 162.928 64.2104 162.513 64.2104C162.098 64.2104 161.744 64.3081 161.451 64.5034C161.158 64.6987 160.936 64.9624 160.785 65.2944C160.633 65.6216 160.558 65.9878 160.558 66.3931V67.2939C160.558 67.792 160.643 68.2192 160.814 68.5757C160.99 68.9272 161.234 69.1958 161.546 69.3813C161.864 69.5669 162.232 69.6597 162.652 69.6597C162.926 69.6597 163.175 69.6206 163.399 69.5425C163.629 69.4644 163.824 69.3472 163.985 69.1909C164.151 69.0298 164.278 68.832 164.366 68.5977L166.168 68.8101C166.051 69.2837 165.833 69.6987 165.516 70.0552C165.204 70.4067 164.801 70.6802 164.308 70.8755C163.819 71.0659 163.258 71.1611 162.623 71.1611ZM170.87 71.1611C170.069 71.1611 169.376 70.9854 168.79 70.6338C168.204 70.2822 167.75 69.7891 167.428 69.1543C167.11 68.5195 166.952 67.7822 166.952 66.9424C166.952 66.0977 167.11 65.3579 167.428 64.7231C167.75 64.0835 168.204 63.5879 168.79 63.2363C169.376 62.8848 170.069 62.709 170.87 62.709C171.671 62.709 172.364 62.8848 172.95 63.2363C173.536 63.5879 173.99 64.0835 174.312 64.7231C174.635 65.3579 174.796 66.0977 174.796 66.9424C174.796 67.7822 174.635 68.5195 174.312 69.1543C173.99 69.7891 173.536 70.2822 172.95 70.6338C172.364 70.9854 171.671 71.1611 170.87 71.1611ZM170.87 69.6084C171.314 69.6084 171.681 69.4912 171.969 69.2568C172.257 69.0176 172.472 68.6953 172.613 68.29C172.76 67.8848 172.833 67.4355 172.833 66.9424C172.833 66.4395 172.76 65.9854 172.613 65.5801C172.472 65.1748 172.257 64.855 171.969 64.6206C171.681 64.3813 171.314 64.2617 170.87 64.2617C170.436 64.2617 170.072 64.3813 169.779 64.6206C169.486 64.855 169.266 65.1748 169.12 65.5801C168.978 65.9854 168.907 66.4395 168.907 66.9424C168.907 67.4355 168.978 67.8848 169.12 68.29C169.266 68.6953 169.486 69.0176 169.779 69.2568C170.072 69.4912 170.436 69.6084 170.87 69.6084Z" fill="white"/>
<path d="M29 100.01H16C14.794 100.01 13 100.809 13 103.01V117.01C13 119.211 14.794 120.01 16 120.01H31V118.01H16.012C15.55 117.998 15 117.815 15 117.01C15 116.909 15.009 116.819 15.024 116.737C15.136 116.162 15.607 116.02 16.011 116.01H30C30.018 116.01 30.031 116.001 30.049 116H31V102.01C31 100.907 30.103 100.01 29 100.01ZM29 114.01H15V103.01C15 102.204 15.55 102.022 16 102.01H23V109.01L25 108.01L27 109.01V102.01H29V114.01Z" fill="#EAECEF"/>
<path d="M44.791 115V104.087H51.793V105.742H46.7686V109.016H51.3022V110.649H46.7686V115H44.791ZM53.0674 115H50.9507L54.8032 104.087H57.2349L61.0801 115H58.9707L56.0557 106.328H55.9678L53.0674 115ZM53.1406 110.723H58.8901V112.305H53.1406V110.723ZM65.4893 111.338H67.2764L68.3384 112.708L69.0854 113.601L70.9092 115.938H68.9902L67.7598 114.377L67.2251 113.623L65.4893 111.338ZM66.1631 115.146C65.2109 115.146 64.354 114.924 63.5923 114.48C62.8354 114.036 62.2373 113.396 61.7979 112.561C61.3633 111.726 61.146 110.723 61.146 109.551C61.146 108.374 61.3633 107.368 61.7979 106.533C62.2373 105.693 62.8354 105.051 63.5923 104.607C64.354 104.163 65.2109 103.94 66.1631 103.94C67.1201 103.94 67.9746 104.163 68.7266 104.607C69.4785 105.051 70.0742 105.693 70.5137 106.533C70.9531 107.368 71.1729 108.374 71.1729 109.551C71.1729 110.723 70.9531 111.726 70.5137 112.561C70.0742 113.396 69.4785 114.036 68.7266 114.48C67.9746 114.924 67.1201 115.146 66.1631 115.146ZM66.1631 113.374C66.7539 113.374 67.2764 113.228 67.7305 112.935C68.1846 112.642 68.541 112.212 68.7998 111.646C69.0586 111.074 69.188 110.376 69.188 109.551C69.188 108.721 69.0586 108.02 68.7998 107.449C68.541 106.877 68.1846 106.445 67.7305 106.152C67.2764 105.859 66.7539 105.713 66.1631 105.713C65.5723 105.713 65.0474 105.859 64.5884 106.152C64.1343 106.445 63.7778 106.877 63.519 107.449C63.2603 108.02 63.1309 108.721 63.1309 109.551C63.1309 110.376 63.2603 111.074 63.519 111.646C63.7778 112.212 64.1343 112.642 64.5884 112.935C65.0474 113.228 65.5723 113.374 66.1631 113.374ZM75.5747 115V106.812H82.4888V115H80.6211V108.394H77.4131V115H75.5747ZM87.4766 115.161C86.6758 115.161 85.9824 114.985 85.3965 114.634C84.8105 114.282 84.3564 113.789 84.0342 113.154C83.7168 112.52 83.5581 111.782 83.5581 110.942C83.5581 110.098 83.7168 109.358 84.0342 108.723C84.3564 108.083 84.8105 107.588 85.3965 107.236C85.9824 106.885 86.6758 106.709 87.4766 106.709C88.2773 106.709 88.9707 106.885 89.5566 107.236C90.1426 107.588 90.5967 108.083 90.9189 108.723C91.2412 109.358 91.4023 110.098 91.4023 110.942C91.4023 111.782 91.2412 112.52 90.9189 113.154C90.5967 113.789 90.1426 114.282 89.5566 114.634C88.9707 114.985 88.2773 115.161 87.4766 115.161ZM87.4766 113.608C87.9209 113.608 88.2871 113.491 88.5752 113.257C88.8633 113.018 89.0781 112.695 89.2197 112.29C89.3662 111.885 89.4395 111.436 89.4395 110.942C89.4395 110.439 89.3662 109.985 89.2197 109.58C89.0781 109.175 88.8633 108.855 88.5752 108.621C88.2871 108.381 87.9209 108.262 87.4766 108.262C87.042 108.262 86.6782 108.381 86.3853 108.621C86.0923 108.855 85.8726 109.175 85.7261 109.58C85.5845 109.985 85.5137 110.439 85.5137 110.942C85.5137 111.436 85.5845 111.885 85.7261 112.29C85.8726 112.695 86.0923 113.018 86.3853 113.257C86.6782 113.491 87.042 113.608 87.4766 113.608ZM95.709 115V104.087H99.8032C100.643 104.087 101.346 104.243 101.913 104.556C102.484 104.868 102.916 105.298 103.209 105.845C103.502 106.392 103.648 107.012 103.648 107.705C103.648 108.403 103.5 109.026 103.202 109.573C102.909 110.115 102.474 110.542 101.898 110.854C101.322 111.162 100.614 111.316 99.7739 111.316H97.064V109.69H99.5029C99.9961 109.69 100.399 109.607 100.711 109.441C101.029 109.27 101.261 109.036 101.407 108.738C101.559 108.435 101.634 108.091 101.634 107.705C101.634 107.314 101.559 106.973 101.407 106.68C101.261 106.382 101.029 106.152 100.711 105.991C100.399 105.825 99.9937 105.742 99.4956 105.742H97.6865V115H95.709ZM104.696 115V113.579L108.49 109.858C108.846 109.492 109.144 109.167 109.383 108.884C109.627 108.601 109.811 108.328 109.933 108.064C110.055 107.795 110.116 107.51 110.116 107.207C110.116 106.865 110.038 106.57 109.881 106.321C109.725 106.072 109.51 105.881 109.237 105.75C108.968 105.618 108.661 105.552 108.314 105.552C107.953 105.552 107.638 105.625 107.369 105.771C107.101 105.918 106.891 106.125 106.739 106.394C106.593 106.663 106.52 106.982 106.52 107.354H104.645C104.645 106.665 104.801 106.067 105.113 105.559C105.431 105.046 105.868 104.648 106.424 104.365C106.981 104.082 107.618 103.94 108.336 103.94C109.073 103.94 109.718 104.077 110.27 104.351C110.821 104.624 111.251 105 111.559 105.479C111.866 105.952 112.02 106.494 112.02 107.104C112.02 107.515 111.942 107.917 111.786 108.313C111.629 108.704 111.354 109.141 110.958 109.624C110.567 110.103 110.018 110.681 109.31 111.36L107.435 113.271V113.352H112.181V115H104.696ZM113.58 115V104.087H117.674C118.514 104.087 119.217 104.243 119.784 104.556C120.355 104.868 120.787 105.298 121.08 105.845C121.373 106.392 121.52 107.012 121.52 107.705C121.52 108.403 121.371 109.026 121.073 109.573C120.78 110.115 120.345 110.542 119.769 110.854C119.193 111.162 118.485 111.316 117.645 111.316H114.935V109.69H117.374C117.867 109.69 118.27 109.607 118.583 109.441C118.9 109.27 119.132 109.036 119.278 108.738C119.43 108.435 119.505 108.091 119.505 107.705C119.505 107.314 119.43 106.973 119.278 106.68C119.132 106.382 118.9 106.152 118.583 105.991C118.27 105.825 117.865 105.742 117.367 105.742H115.558V115H113.58ZM125.76 115V106.812H132.674V115H130.807V108.394H127.599V115H125.76ZM133.531 115L133.524 113.411H133.795C134.083 113.411 134.31 113.323 134.476 113.147C134.647 112.971 134.776 112.668 134.864 112.239C134.952 111.804 135.011 111.206 135.04 110.444L135.179 106.812H141.148V115H139.281V108.394H136.937L136.805 111.045C136.771 111.724 136.695 112.312 136.578 112.81C136.461 113.308 136.292 113.721 136.073 114.048C135.858 114.37 135.589 114.609 135.267 114.766C134.945 114.922 134.564 115 134.125 115H133.531ZM144.935 115.168C144.413 115.168 143.944 115.076 143.529 114.89C143.114 114.7 142.787 114.421 142.547 114.055C142.308 113.689 142.188 113.237 142.188 112.7C142.188 112.241 142.274 111.86 142.445 111.558C142.616 111.255 142.848 111.013 143.141 110.833C143.438 110.652 143.773 110.515 144.144 110.422C144.515 110.325 144.898 110.256 145.294 110.217C145.777 110.164 146.168 110.117 146.466 110.078C146.764 110.039 146.979 109.976 147.11 109.888C147.247 109.8 147.315 109.663 147.315 109.478V109.441C147.315 109.045 147.198 108.738 146.964 108.518C146.729 108.298 146.388 108.188 145.938 108.188C145.465 108.188 145.089 108.291 144.811 108.496C144.537 108.701 144.352 108.943 144.254 109.221L142.459 108.965C142.601 108.467 142.835 108.052 143.163 107.72C143.49 107.383 143.888 107.131 144.356 106.965C144.83 106.794 145.353 106.709 145.924 106.709C146.314 106.709 146.705 106.755 147.096 106.848C147.486 106.936 147.845 107.087 148.172 107.302C148.5 107.517 148.761 107.805 148.956 108.167C149.151 108.528 149.249 108.979 149.249 109.521V115H147.396V113.872H147.337C147.22 114.097 147.054 114.309 146.839 114.509C146.629 114.705 146.366 114.863 146.048 114.985C145.736 115.107 145.365 115.168 144.935 115.168ZM145.426 113.748C145.816 113.748 146.153 113.672 146.437 113.521C146.72 113.364 146.939 113.159 147.096 112.905C147.252 112.646 147.33 112.366 147.33 112.063V111.104C147.267 111.152 147.164 111.199 147.022 111.243C146.881 111.282 146.72 111.318 146.539 111.353C146.358 111.387 146.18 111.416 146.004 111.44C145.833 111.465 145.685 111.484 145.558 111.499C145.27 111.538 145.011 111.604 144.781 111.697C144.557 111.785 144.378 111.907 144.247 112.063C144.115 112.219 144.049 112.422 144.049 112.671C144.049 113.027 144.178 113.296 144.437 113.477C144.696 113.657 145.025 113.748 145.426 113.748ZM149.762 108.394V106.812H156.917V108.394H154.273V115H152.406V108.394H149.762ZM161.275 117.783V104.087H163.202V117.783H161.275ZM161.275 115.161C160.675 115.161 160.125 115.061 159.627 114.861C159.129 114.656 158.7 114.368 158.338 113.997C157.977 113.621 157.699 113.176 157.503 112.664C157.308 112.146 157.21 111.572 157.21 110.942C157.21 110.312 157.308 109.739 157.503 109.221C157.699 108.704 157.977 108.257 158.338 107.881C158.7 107.505 159.129 107.217 159.627 107.017C160.125 106.812 160.675 106.709 161.275 106.709H161.686V115.161H161.275ZM161.275 113.608H161.517V108.262H161.275C160.816 108.262 160.431 108.384 160.118 108.628C159.811 108.872 159.576 109.197 159.415 109.602C159.259 110.007 159.181 110.454 159.181 110.942C159.181 111.309 159.225 111.653 159.312 111.975C159.405 112.297 159.54 112.581 159.715 112.825C159.891 113.069 160.108 113.262 160.367 113.403C160.631 113.54 160.934 113.608 161.275 113.608ZM163.202 115.161H162.799V106.709H163.202C163.802 106.709 164.352 106.812 164.85 107.017C165.348 107.217 165.777 107.505 166.139 107.881C166.5 108.257 166.778 108.704 166.974 109.221C167.169 109.739 167.267 110.312 167.267 110.942C167.267 111.572 167.169 112.146 166.974 112.664C166.778 113.176 166.5 113.621 166.139 113.997C165.777 114.368 165.348 114.656 164.85 114.861C164.352 115.061 163.802 115.161 163.202 115.161ZM163.202 113.608C163.543 113.608 163.846 113.54 164.11 113.403C164.374 113.262 164.593 113.069 164.769 112.825C164.945 112.581 165.077 112.297 165.165 111.975C165.257 111.653 165.304 111.309 165.304 110.942C165.304 110.454 165.223 110.007 165.062 109.602C164.901 109.197 164.664 108.872 164.352 108.628C164.044 108.384 163.661 108.262 163.202 108.262H162.975V113.608H163.202ZM171.91 115.161C171.109 115.161 170.416 114.985 169.83 114.634C169.244 114.282 168.79 113.789 168.468 113.154C168.15 112.52 167.992 111.782 167.992 110.942C167.992 110.098 168.15 109.358 168.468 108.723C168.79 108.083 169.244 107.588 169.83 107.236C170.416 106.885 171.109 106.709 171.91 106.709C172.711 106.709 173.404 106.885 173.99 107.236C174.576 107.588 175.03 108.083 175.353 108.723C175.675 109.358 175.836 110.098 175.836 110.942C175.836 111.782 175.675 112.52 175.353 113.154C175.03 113.789 174.576 114.282 173.99 114.634C173.404 114.985 172.711 115.161 171.91 115.161ZM171.91 113.608C172.354 113.608 172.721 113.491 173.009 113.257C173.297 113.018 173.512 112.695 173.653 112.29C173.8 111.885 173.873 111.436 173.873 110.942C173.873 110.439 173.8 109.985 173.653 109.58C173.512 109.175 173.297 108.855 173.009 108.621C172.721 108.381 172.354 108.262 171.91 108.262C171.476 108.262 171.112 108.381 170.819 108.621C170.526 108.855 170.306 109.175 170.16 109.58C170.018 109.985 169.947 110.439 169.947 110.942C169.947 111.436 170.018 111.885 170.16 112.29C170.306 112.695 170.526 113.018 170.819 113.257C171.112 113.491 171.476 113.608 171.91 113.608ZM176.898 118.062V106.812H178.788V108.167H178.905C179.002 107.971 179.142 107.761 179.322 107.537C179.503 107.307 179.747 107.112 180.055 106.951C180.367 106.79 180.765 106.709 181.249 106.709C181.878 106.709 182.447 106.87 182.955 107.192C183.463 107.515 183.866 107.988 184.164 108.613C184.466 109.238 184.618 110.007 184.618 110.92C184.618 111.819 184.471 112.583 184.178 113.213C183.885 113.843 183.482 114.324 182.97 114.656C182.462 114.983 181.886 115.146 181.241 115.146C180.777 115.146 180.389 115.068 180.077 114.912C179.769 114.751 179.52 114.561 179.33 114.341C179.144 114.116 179.002 113.904 178.905 113.704H178.824V118.062H176.898ZM180.714 113.564C181.139 113.564 181.493 113.45 181.776 113.22C182.064 112.991 182.281 112.676 182.428 112.275C182.574 111.875 182.647 111.421 182.647 110.913C182.647 110.405 182.574 109.954 182.428 109.558C182.281 109.163 182.066 108.853 181.783 108.628C181.5 108.403 181.144 108.291 180.714 108.291C180.299 108.291 179.947 108.398 179.659 108.613C179.376 108.828 179.159 109.133 179.007 109.529C178.861 109.919 178.788 110.381 178.788 110.913C178.788 111.44 178.861 111.904 179.007 112.305C179.159 112.7 179.378 113.01 179.667 113.235C179.955 113.455 180.304 113.564 180.714 113.564ZM190.396 112.759L192.828 106.812H194.374L191.07 115H189.723L186.485 106.812H188.031L190.396 112.759ZM187.54 106.812V115H185.687V106.812H187.54ZM193.326 115V106.812H195.165V115H193.326ZM200.211 115.161C199.391 115.161 198.683 114.99 198.087 114.648C197.491 114.302 197.032 113.813 196.71 113.184C196.393 112.554 196.234 111.812 196.234 110.957C196.234 110.112 196.393 109.373 196.71 108.738C197.027 108.098 197.474 107.6 198.05 107.244C198.626 106.887 199.305 106.709 200.086 106.709C200.589 106.709 201.065 106.79 201.515 106.951C201.969 107.112 202.369 107.361 202.716 107.698C203.067 108.035 203.343 108.464 203.543 108.987C203.744 109.504 203.844 110.122 203.844 110.84V111.44H197.135V110.144H202.884L201.983 110.525C201.983 110.061 201.913 109.658 201.771 109.316C201.629 108.97 201.419 108.699 201.141 108.503C200.863 108.308 200.516 108.21 200.101 108.21C199.686 108.21 199.332 108.308 199.039 108.503C198.746 108.699 198.524 108.962 198.373 109.294C198.221 109.622 198.146 109.988 198.146 110.393V111.294C198.146 111.792 198.231 112.219 198.402 112.576C198.578 112.927 198.822 113.196 199.134 113.381C199.452 113.567 199.82 113.66 200.24 113.66C200.514 113.66 200.763 113.621 200.987 113.542C201.217 113.464 201.412 113.347 201.573 113.191C201.739 113.03 201.866 112.832 201.954 112.598L203.756 112.81C203.639 113.284 203.421 113.699 203.104 114.055C202.792 114.407 202.389 114.68 201.896 114.875C201.407 115.066 200.846 115.161 200.211 115.161Z" fill="white"/>
</svg>
