<svg width="48" height="48" viewBox="0 0 48 48" fill="none" xmlns="http://www.w3.org/2000/svg">
<path d="M23.998 14.7539C21.5453 14.7539 19.193 15.7282 17.4587 17.4626C15.7243 19.1969 14.75 21.5492 14.75 24.0019C14.75 26.4546 15.7243 28.8069 17.4587 30.5412C19.193 32.2756 21.5453 33.2499 23.998 33.2499C26.4507 33.2499 28.803 32.2756 30.5373 30.5412C32.2717 28.8069 33.246 26.4546 33.246 24.0019C33.246 21.5492 32.2717 19.1969 30.5373 17.4626C28.803 15.7282 26.4507 14.7539 23.998 14.7539ZM23.998 30.0079C22.4046 30.0079 20.8764 29.3749 19.7497 28.2482C18.623 27.1215 17.99 25.5933 17.99 23.9999C17.99 22.4065 18.623 20.8783 19.7497 19.7516C20.8764 18.6249 22.4046 17.9919 23.998 17.9919C25.5914 17.9919 27.1196 18.6249 28.2463 19.7516C29.373 20.8783 30.006 22.4065 30.006 23.9999C30.006 25.5933 29.373 27.1215 28.2463 28.2482C27.1196 29.3749 25.5914 30.0079 23.998 30.0079Z" fill="#0072FF"/>
<path d="M33.613 16.5701C34.8038 16.5701 35.769 15.6048 35.769 14.4141C35.769 13.2233 34.8038 12.2581 33.613 12.2581C32.4223 12.2581 31.457 13.2233 31.457 14.4141C31.457 15.6048 32.4223 16.5701 33.613 16.5701Z" fill="#0072FF"/>
<path d="M41.0659 12.222C40.6029 11.0264 39.8954 9.94057 38.9886 9.03413C38.0818 8.12768 36.9957 7.42055 35.7999 6.95801C34.4006 6.43272 32.9223 6.14869 31.4279 6.11801C29.5019 6.03401 28.8919 6.01001 24.0079 6.01001C19.1239 6.01001 18.4979 6.01001 16.5879 6.11801C15.0947 6.14712 13.6174 6.43121 12.2199 6.95801C11.0238 7.42001 9.93744 8.12695 9.03057 9.03347C8.12371 9.93998 7.41636 11.0261 6.95391 12.222C6.42852 13.6212 6.14514 15.0997 6.11591 16.594C6.02991 18.518 6.00391 19.128 6.00391 24.014C6.00391 28.898 6.00391 29.52 6.11591 31.434C6.14591 32.93 6.42791 34.406 6.95391 35.808C7.41766 37.0035 8.1257 38.0892 9.03278 38.9956C9.93986 39.902 11.026 40.6092 12.2219 41.072C13.6168 41.6184 15.0946 41.9228 16.5919 41.972C18.5179 42.056 19.1279 42.082 24.0119 42.082C28.8959 42.082 29.5219 42.082 31.4319 41.972C32.9261 41.9416 34.4044 41.6583 35.8039 41.134C36.9994 40.6704 38.0852 39.9626 38.9918 39.056C39.8985 38.1493 40.6063 37.0635 41.0699 35.868C41.5959 34.468 41.8779 32.992 41.9079 31.496C41.9939 29.572 42.0199 28.962 42.0199 24.076C42.0199 19.19 42.0199 18.57 41.9079 16.656C41.8846 15.1406 41.5998 13.6405 41.0659 12.222ZM38.6299 31.286C38.617 32.4386 38.4066 33.5805 38.0079 34.662C37.7076 35.4397 37.2477 36.146 36.658 36.7354C36.0683 37.3247 35.3618 37.7841 34.5839 38.084C33.5144 38.4809 32.3846 38.6913 31.2439 38.706C29.3439 38.794 28.8079 38.816 23.9359 38.816C19.0599 38.816 18.5619 38.816 16.6259 38.706C15.4858 38.6921 14.3566 38.4816 13.2879 38.084C12.5073 37.786 11.7979 37.3274 11.2057 36.7379C10.6135 36.1485 10.1516 35.4412 9.84991 34.662C9.4568 33.5921 9.24653 32.4637 9.22791 31.324C9.14191 29.424 9.12191 28.888 9.12191 24.016C9.12191 19.142 9.12191 18.644 9.22791 16.706C9.24083 15.5541 9.45122 14.4128 9.84991 13.332C10.4599 11.754 11.7099 10.512 13.2879 9.90801C14.3571 9.51229 15.486 9.30194 16.6259 9.28601C18.5279 9.20001 19.0619 9.17601 23.9359 9.17601C28.8099 9.17601 29.3099 9.17601 31.2439 9.28601C32.3847 9.29973 33.5146 9.51015 34.5839 9.90801C35.3618 10.2086 36.0682 10.6684 36.6578 11.2581C37.2475 11.8477 37.7074 12.5542 38.0079 13.332C38.401 14.4019 38.6113 15.5303 38.6299 16.67C38.7159 18.572 38.7379 19.106 38.7379 23.98C38.7379 28.852 38.7379 29.376 38.6519 31.288H38.6299V31.286Z" fill="#0072FF"/>
</svg>
