<svg width="20" height="20" viewBox="0 0 20 20" fill="none" xmlns="http://www.w3.org/2000/svg">
<path d="M2.00062 19C2.08033 19.0096 2.16091 19.0096 2.24062 19L6.24062 18C6.41807 17.9578 6.5806 17.8679 6.71062 17.74L19.0006 5.41C19.3731 5.03527 19.5822 4.52837 19.5822 3.99999C19.5822 3.47162 19.3731 2.96472 19.0006 2.59L17.4206 0.999995C17.2349 0.814042 17.0143 0.666524 16.7715 0.565876C16.5287 0.465227 16.2685 0.413422 16.0056 0.413422C15.7428 0.413422 15.4825 0.465227 15.2397 0.565876C14.9969 0.666524 14.7764 0.814042 14.5906 0.999995L2.30062 13.29C2.17141 13.4206 2.07837 13.5826 2.03062 13.76L1.03062 17.76C0.994682 17.8894 0.985169 18.0247 1.00265 18.1578C1.02014 18.291 1.06426 18.4192 1.13239 18.535C1.20051 18.6507 1.29125 18.7515 1.39919 18.8314C1.50712 18.9113 1.63005 18.9686 1.76062 19C1.84033 19.0096 1.92091 19.0096 2.00062 19ZM16.0006 2.40999L17.5906 3.99999L16.0006 5.59L14.4206 3.99999L16.0006 2.40999ZM3.91062 14.51L13.0006 5.41L14.5906 7L5.49062 16.1L3.38062 16.62L3.91062 14.51Z" fill="#0072FF"/>
</svg>
