<svg width="31" height="30" viewBox="0 0 31 30" fill="none" xmlns="http://www.w3.org/2000/svg">
<path d="M15.7949 20L22.0449 12.5H9.54492L15.7949 20Z" fill="#0072FF"/>
<path d="M15.7949 2.5C8.90242 2.5 3.29492 8.1075 3.29492 15C3.29492 21.8925 8.90242 27.5 15.7949 27.5C22.6874 27.5 28.2949 21.8925 28.2949 15C28.2949 8.1075 22.6874 2.5 15.7949 2.5ZM15.7949 25C10.2812 25 5.79492 20.5138 5.79492 15C5.79492 9.48625 10.2812 5 15.7949 5C21.3087 5 25.7949 9.48625 25.7949 15C25.7949 20.5138 21.3087 25 15.7949 25Z" fill="#0072FF"/>
</svg>
