<svg width="84" height="84" viewBox="0 0 84 84" fill="none" xmlns="http://www.w3.org/2000/svg">
<path d="M16.1911 31.073C17.5897 27.748 19.6226 24.7273 22.1761 22.1795C24.7239 19.6245 27.7461 17.5914 31.0731 16.1945C37.9313 13.3453 45.6324 13.2938 52.5281 16.051C52.5973 18.3172 53.5469 20.4672 55.1753 22.0446C56.8038 23.6221 58.9829 24.5029 61.2501 24.5C66.1011 24.5 70.0001 20.601 70.0001 15.75C70.0001 10.899 66.1011 7 61.2501 7C58.8386 7 56.6581 7.966 55.0796 9.5375C46.5711 6.132 36.7991 6.1845 28.3571 9.744C24.1921 11.494 20.4471 14.014 17.2271 17.2305C13.9758 20.4827 11.3988 24.3449 9.64376 28.5955C7.88875 32.8461 6.99034 37.4014 7.00008 42H14.0001C14.0001 38.199 14.7386 34.524 16.1911 31.073ZM67.8056 52.927C66.4021 56.259 64.3861 59.255 61.8206 61.8205C59.2551 64.386 56.2591 66.402 52.9236 67.8055C46.0654 70.6547 38.3643 70.7062 31.4686 67.949C31.4012 65.6829 30.4526 63.5324 28.8245 61.9546C27.1964 60.3769 25.0172 59.4963 22.7501 59.5C17.8991 59.5 14.0001 63.399 14.0001 68.25C14.0001 73.101 17.8991 77 22.7501 77C25.1616 77 27.3421 76.034 28.9206 74.4625C33.077 76.1403 37.5178 77.0018 42.0001 77C48.8829 77.0133 55.6164 74.9934 61.3555 71.1939C67.0947 67.3944 71.5838 61.9845 74.2596 55.643C76.0778 51.3248 77.0097 46.6853 77.0001 42H70.0001C70.0089 45.7527 69.2626 49.4687 67.8056 52.927Z" fill="#1D2630"/>
<path d="M42.0002 26.117C33.2432 26.117 26.1172 33.243 26.1172 42C26.1172 50.757 33.2432 57.883 42.0002 57.883C50.7572 57.883 57.8832 50.757 57.8832 42C57.8832 33.243 50.7572 26.117 42.0002 26.117Z" fill="#1D2630"/>
</svg>
