<svg width="27" height="27" viewBox="0 0 27 27" fill="none" xmlns="http://www.w3.org/2000/svg">
<path d="M17.998 9.5625H20.248C20.248 6.37088 17.1487 4.91513 14.623 4.57987V2.25H12.373V4.57987C9.84742 4.91513 6.74805 6.37088 6.74805 9.5625C6.74805 12.6068 9.7473 14.1896 12.373 14.5463V20.1375C10.744 19.8551 8.99805 18.9855 8.99805 17.4375H6.74805C6.74805 20.3501 9.47617 22.0714 12.373 22.428V24.75H14.623V22.4212C17.1487 22.086 20.248 20.6291 20.248 17.4375C20.248 14.2459 17.1487 12.7901 14.623 12.4549V6.8625C16.1193 7.13137 17.998 7.92112 17.998 9.5625ZM8.99805 9.5625C8.99805 7.92112 10.8768 7.13137 12.373 6.8625V12.2614C10.8307 11.9768 8.99805 11.1341 8.99805 9.5625ZM17.998 17.4375C17.998 19.0789 16.1193 19.8686 14.623 20.1375V14.7375C16.1193 15.0064 17.998 15.7961 17.998 17.4375Z" fill="#EAECEF"/>
</svg>
