<svg width="84" height="84" viewBox="0 0 84 84" fill="none" xmlns="http://www.w3.org/2000/svg">
<path d="M10.5 10.5V70C10.5 70.9283 10.8687 71.8185 11.5251 72.4749C12.1815 73.1313 13.0717 73.5 14 73.5H73.5V66.5H17.5V10.5H10.5Z" fill="#1D2630"/>
<path d="M53.5254 51.4745C53.8501 51.7998 54.2359 52.0579 54.6605 52.234C55.0851 52.4101 55.5402 52.5007 55.9999 52.5007C56.4596 52.5007 56.9147 52.4101 57.3393 52.234C57.7639 52.0579 58.1496 51.7998 58.4744 51.4745L75.9744 33.9745L71.0254 29.0255L55.9999 44.051L47.9744 36.0255C47.6496 35.7002 47.2639 35.4421 46.8393 35.266C46.4147 35.0899 45.9596 34.9993 45.4999 34.9993C45.0402 34.9993 44.5851 35.0899 44.1605 35.266C43.7359 35.4421 43.3501 35.7002 43.0254 36.0255L25.5254 53.5255L30.4744 58.4745L45.4999 43.449L53.5254 51.4745Z" fill="#1D2630"/>
</svg>
