<svg width="41" height="40" viewBox="0 0 41 40" fill="none" xmlns="http://www.w3.org/2000/svg">
<path d="M33.584 19.9998C33.1833 20.0027 32.7864 20.0778 32.4123 20.2215L28.4157 16.9498C28.514 16.5932 28.584 16.2232 28.584 15.8332C28.584 13.5232 26.7273 11.6665 24.4173 11.6665C22.1073 11.6665 20.2507 13.5232 20.2507 15.8332C20.2507 16.4932 20.4173 17.1082 20.6873 17.6615L15.839 23.3915C15.6449 23.3552 15.4481 23.3357 15.2507 23.3332C14.9523 23.3332 14.6707 23.3832 14.3973 23.4565L10.1257 19.1848C10.2007 18.9132 10.2507 18.6315 10.2507 18.3332C10.2507 16.4865 8.76398 14.9998 6.91732 14.9998C5.07065 14.9998 3.58398 16.4865 3.58398 18.3332C3.58398 20.1798 5.07065 21.6665 6.91732 21.6665C7.21565 21.6665 7.49732 21.6165 7.77065 21.5432L12.0423 25.8148C11.9622 26.0917 11.9201 26.3783 11.9173 26.6665C11.9173 28.5132 13.404 29.9998 15.2507 29.9998C17.0973 29.9998 18.584 28.5132 18.584 26.6665C18.584 26.2715 18.504 25.8998 18.379 25.5482L23.234 19.8115C23.6123 19.9215 24.004 19.9998 24.4173 19.9998C25.0751 19.9962 25.7224 19.8356 26.3057 19.5315L30.304 22.8032C30.2726 22.9782 30.2548 23.1554 30.2507 23.3332C30.2507 25.1798 31.7373 26.6665 33.584 26.6665C35.4307 26.6665 36.9173 25.1798 36.9173 23.3332C36.9173 21.4865 35.4307 19.9998 33.584 19.9998Z" fill="#EAECEF"/>
</svg>
