<svg width="41" height="40" viewBox="0 0 41 40" fill="none" xmlns="http://www.w3.org/2000/svg">
<path d="M31.9167 5.00016C29.16 5.00016 26.9167 7.2435 26.9167 10.0002C26.9167 10.8368 27.1433 11.6135 27.5067 12.3085L25.6467 14.4785C24.5464 13.7311 23.2467 13.3322 21.9167 13.3335C20.685 13.3335 19.5417 13.6935 18.55 14.2768L16.1933 11.9202C16.6615 11.0775 16.9102 10.1307 16.9167 9.16683C16.9167 5.95016 14.3 3.3335 11.0833 3.3335C7.86667 3.3335 5.25 5.95016 5.25 9.16683C5.25 12.3835 7.86667 15.0002 11.0833 15.0002C12.085 15.0002 13.0133 14.7235 13.8367 14.2768L16.1933 16.6335C15.5829 17.6509 15.2571 18.8137 15.25 20.0002C15.25 21.6618 15.8833 23.1652 16.8917 24.3352L14.0717 27.1552L14.1133 27.1968C13.4319 26.8527 12.68 26.6713 11.9167 26.6668C9.16 26.6668 6.91667 28.9102 6.91667 31.6668C6.91667 34.4235 9.16 36.6668 11.9167 36.6668C14.6733 36.6668 16.9167 34.4235 16.9167 31.6668C16.9167 30.8735 16.715 30.1352 16.3867 29.4702L16.4283 29.5118L19.685 26.2552C20.3867 26.5052 21.13 26.6668 21.9167 26.6668C25.5933 26.6668 28.5833 23.6768 28.5833 20.0002C28.5762 18.9648 28.3255 17.9457 27.8517 17.0252L29.94 14.5885C30.5467 14.8518 31.2133 15.0002 31.9167 15.0002C34.6733 15.0002 36.9167 12.7568 36.9167 10.0002C36.9167 7.2435 34.6733 5.00016 31.9167 5.00016ZM11.9167 33.3335C11.4746 33.3335 11.0507 33.1579 10.7382 32.8453C10.4256 32.5328 10.25 32.1089 10.25 31.6668C10.25 31.2248 10.4256 30.8009 10.7382 30.4883C11.0507 30.1758 11.4746 30.0002 11.9167 30.0002C12.3587 30.0002 12.7826 30.1758 13.0952 30.4883C13.4077 30.8009 13.5833 31.2248 13.5833 31.6668C13.5833 32.1089 13.4077 32.5328 13.0952 32.8453C12.7826 33.1579 12.3587 33.3335 11.9167 33.3335ZM8.58333 9.16683C8.58333 7.7885 9.705 6.66683 11.0833 6.66683C12.4617 6.66683 13.5833 7.7885 13.5833 9.16683C13.5833 10.5452 12.4617 11.6668 11.0833 11.6668C9.705 11.6668 8.58333 10.5452 8.58333 9.16683ZM21.9167 23.3335C20.0783 23.3335 18.5833 21.8385 18.5833 20.0002C18.5833 18.1618 20.0783 16.6668 21.9167 16.6668C23.755 16.6668 25.25 18.1618 25.25 20.0002C25.25 21.8385 23.755 23.3335 21.9167 23.3335ZM31.9167 11.6668C31.4746 11.6668 31.0507 11.4912 30.7382 11.1787C30.4256 10.8661 30.25 10.4422 30.25 10.0002C30.25 9.55814 30.4256 9.13421 30.7382 8.82165C31.0507 8.50909 31.4746 8.3335 31.9167 8.3335C32.3587 8.3335 32.7826 8.50909 33.0952 8.82165C33.4077 9.13421 33.5833 9.55814 33.5833 10.0002C33.5833 10.4422 33.4077 10.8661 33.0952 11.1787C32.7826 11.4912 32.3587 11.6668 31.9167 11.6668Z" fill="#EAECEF"/>
</svg>
