<svg width="15" height="11" viewBox="0 0 15 11" fill="none" xmlns="http://www.w3.org/2000/svg">
<g clip-path="url(#clip0_523_1588)">
<path d="M15 10.9545H0V0.045455H15V10.9545Z" fill="#003399"/>
<path d="M7.49984 9.21877L7.6665 8.68005L7.38873 8.62618L7.49984 9.21877Z" fill="#FFCC00"/>
<path d="M7.49967 9.21877L7.33301 8.68005L7.61079 8.62618L7.49967 9.21877Z" fill="#FFCC00"/>
<path d="M6.97178 8.84405L7.55107 8.83529L7.51602 8.56005L6.97178 8.84405Z" fill="#FFCC00"/>
<path d="M6.97206 8.84547L7.44609 8.52611L7.58647 8.76853L6.97206 8.84547Z" fill="#FFCC00"/>
<path d="M7.17213 8.24377L7.36583 8.77495L7.62201 8.66144L7.17213 8.24377Z" fill="#FFCC00"/>
<path d="M7.17259 8.24354L7.63438 8.58608L7.44374 8.78697L7.17259 8.24354Z" fill="#FFCC00"/>
<path d="M8.02724 8.84405L7.44795 8.83529L7.483 8.56005L8.02724 8.84405Z" fill="#FFCC00"/>
<path d="M8.02696 8.84547L7.55293 8.52611L7.41255 8.76853L8.02696 8.84547Z" fill="#FFCC00"/>
<path d="M7.82689 8.24377L7.6332 8.77495L7.37701 8.66144L7.82689 8.24377Z" fill="#FFCC00"/>
<path d="M7.82643 8.24354L7.36464 8.58608L7.55528 8.78697L7.82643 8.24354Z" fill="#FFCC00"/>
<path d="M7.49984 2.75413L7.6665 2.21541L7.38873 2.16154L7.49984 2.75413Z" fill="#FFCC00"/>
<path d="M7.49967 2.75413L7.33301 2.21541L7.61079 2.16154L7.49967 2.75413Z" fill="#FFCC00"/>
<path d="M6.97178 2.37941L7.55107 2.37064L7.51602 2.09541L6.97178 2.37941Z" fill="#FFCC00"/>
<path d="M6.97206 2.38082L7.44609 2.06146L7.58647 2.30389L6.97206 2.38082Z" fill="#FFCC00"/>
<path d="M7.17213 1.77913L7.36583 2.3103L7.62201 2.19679L7.17213 1.77913Z" fill="#FFCC00"/>
<path d="M7.17259 1.7789L7.63438 2.12144L7.44374 2.32232L7.17259 1.7789Z" fill="#FFCC00"/>
<path d="M8.02724 2.37941L7.44795 2.37064L7.483 2.09541L8.02724 2.37941Z" fill="#FFCC00"/>
<path d="M8.02696 2.38082L7.55293 2.06146L7.41255 2.30389L8.02696 2.38082Z" fill="#FFCC00"/>
<path d="M7.82689 1.77913L7.6332 2.3103L7.37701 2.19679L7.82689 1.77913Z" fill="#FFCC00"/>
<path d="M7.82643 1.7789L7.36464 2.12144L7.55528 2.32232L7.82643 1.7789Z" fill="#FFCC00"/>
<path d="M10.8333 5.98645L11 5.44773L10.7222 5.39386L10.8333 5.98645Z" fill="#FFCC00"/>
<path d="M10.8332 5.98645L10.6665 5.44773L10.9443 5.39386L10.8332 5.98645Z" fill="#FFCC00"/>
<path d="M10.3053 5.61173L10.8846 5.60297L10.8495 5.32773L10.3053 5.61173Z" fill="#FFCC00"/>
<path d="M10.3056 5.61315L10.7796 5.29379L10.92 5.53621L10.3056 5.61315Z" fill="#FFCC00"/>
<path d="M10.5056 5.01145L10.6993 5.54263L10.9555 5.42912L10.5056 5.01145Z" fill="#FFCC00"/>
<path d="M10.5061 5.01122L10.9679 5.35376L10.7772 5.55464L10.5061 5.01122Z" fill="#FFCC00"/>
<path d="M11.3607 5.61173L10.7814 5.60297L10.8165 5.32773L11.3607 5.61173Z" fill="#FFCC00"/>
<path d="M11.3605 5.61315L10.8864 5.29379L10.746 5.53621L11.3605 5.61315Z" fill="#FFCC00"/>
<path d="M11.1604 5.01145L10.9667 5.54263L10.7105 5.42912L11.1604 5.01145Z" fill="#FFCC00"/>
<path d="M11.1599 5.01122L10.6981 5.35376L10.8888 5.55464L11.1599 5.01122Z" fill="#FFCC00"/>
<path d="M9.45286 7.78604L8.99105 8.12866L9.18163 8.32949L9.45286 7.78604Z" fill="#FFCC00"/>
<path d="M9.4529 7.78628L9.25912 8.31748L9.00299 8.20402L9.4529 7.78628Z" fill="#FFCC00"/>
<path d="M9.65297 8.38856L9.17757 8.06889L9.03797 8.30995L9.65297 8.38856Z" fill="#FFCC00"/>
<path d="M9.65316 8.38822L9.0736 8.37757L9.10766 8.10347L9.65316 8.38822Z" fill="#FFCC00"/>
<path d="M9.1246 8.76079L9.29215 8.22247L9.01749 8.16999L9.1246 8.76079Z" fill="#FFCC00"/>
<path d="M9.12394 8.76054L8.96158 8.22375L9.23676 8.16871L9.12394 8.76054Z" fill="#FFCC00"/>
<path d="M8.79948 7.78743L9.26046 8.12667L9.06703 8.32956L8.79948 7.78743Z" fill="#FFCC00"/>
<path d="M8.79965 7.78718L8.98948 8.31768L9.24799 8.20178L8.79965 7.78718Z" fill="#FFCC00"/>
<path d="M8.59693 8.38951L9.07498 8.06899L9.21294 8.30731L8.59693 8.38951Z" fill="#FFCC00"/>
<path d="M8.59692 8.38974L9.17703 8.3753L9.1449 8.10348L8.59692 8.38974Z" fill="#FFCC00"/>
<path d="M10.0339 6.58782L10.2277 7.11901L10.4838 7.00555L10.0339 6.58782Z" fill="#FFCC00"/>
<path d="M10.034 6.5877L10.4958 6.93031L10.3052 7.13115L10.034 6.5877Z" fill="#FFCC00"/>
<path d="M10.6873 6.58908L10.2264 6.92831L10.4198 7.1312L10.6873 6.58908Z" fill="#FFCC00"/>
<path d="M10.6872 6.58883L10.4973 7.11933L10.2388 7.00342L10.6872 6.58883Z" fill="#FFCC00"/>
<path d="M10.8899 7.19116L10.4118 6.87063L10.2739 7.10895L10.8899 7.19116Z" fill="#FFCC00"/>
<path d="M10.8899 7.19138L10.3098 7.17694L10.3419 6.90512L10.8899 7.19138Z" fill="#FFCC00"/>
<path d="M9.83385 7.1902L10.3092 6.87054L10.4488 7.11159L9.83385 7.1902Z" fill="#FFCC00"/>
<path d="M9.83365 7.18987L10.4132 7.17921L10.3792 6.90512L9.83365 7.18987Z" fill="#FFCC00"/>
<path d="M10.3622 7.56244L10.1947 7.02411L10.4693 6.97163L10.3622 7.56244Z" fill="#FFCC00"/>
<path d="M10.3629 7.56218L10.5252 7.02539L10.2501 6.97036L10.3629 7.56218Z" fill="#FFCC00"/>
<path d="M9.83316 3.94811L10.4122 3.94089L10.3764 3.66472L9.83316 3.94811Z" fill="#FFCC00"/>
<path d="M9.83383 3.94917L10.3067 3.63012L10.4478 3.87366L9.83383 3.94917Z" fill="#FFCC00"/>
<path d="M10.0321 3.34719L10.2291 3.87901L10.4832 3.76749L10.0321 3.34719Z" fill="#FFCC00"/>
<path d="M10.0328 3.34654L10.4953 3.69188L10.3071 3.89108L10.0328 3.34654Z" fill="#FFCC00"/>
<path d="M10.6865 3.34957L10.2258 3.68768L10.4203 3.89128L10.6865 3.34957Z" fill="#FFCC00"/>
<path d="M10.6861 3.34906L10.4977 3.87932L10.2383 3.76259L10.6861 3.34906Z" fill="#FFCC00"/>
<path d="M10.3631 4.32179L10.1945 3.78391L10.4654 3.73301L10.3631 4.32179Z" fill="#FFCC00"/>
<path d="M10.3644 4.32125L10.5216 3.78664L10.2496 3.73029L10.3644 4.32125Z" fill="#FFCC00"/>
<path d="M10.8893 3.95113L10.3091 3.93642L10.3409 3.66477L10.8893 3.95113Z" fill="#FFCC00"/>
<path d="M10.8896 3.95176L10.4111 3.63118L10.2734 3.86931L10.8896 3.95176Z" fill="#FFCC00"/>
<path d="M8.62759 2.86378L9.20665 2.85656L9.1708 2.58039L8.62759 2.86378Z" fill="#FFCC00"/>
<path d="M8.62827 2.86484L9.10118 2.5458L9.24223 2.78933L8.62827 2.86484Z" fill="#FFCC00"/>
<path d="M8.82655 2.26286L9.02355 2.79468L9.27768 2.68316L8.82655 2.26286Z" fill="#FFCC00"/>
<path d="M8.82725 2.26221L9.28973 2.60755L9.10152 2.80675L8.82725 2.26221Z" fill="#FFCC00"/>
<path d="M9.48089 2.26525L9.02026 2.60335L9.21475 2.80696L9.48089 2.26525Z" fill="#FFCC00"/>
<path d="M9.48053 2.26473L9.29218 2.795L9.03277 2.67826L9.48053 2.26473Z" fill="#FFCC00"/>
<path d="M9.15754 3.23747L8.98893 2.69959L9.25987 2.64868L9.15754 3.23747Z" fill="#FFCC00"/>
<path d="M9.15887 3.23692L9.31608 2.70231L9.044 2.64596L9.15887 3.23692Z" fill="#FFCC00"/>
<path d="M9.68369 2.8668L9.1035 2.85209L9.13536 2.58043L9.68369 2.8668Z" fill="#FFCC00"/>
<path d="M9.68399 2.86743L9.20555 2.54685L9.06782 2.78497L9.68399 2.86743Z" fill="#FFCC00"/>
<path d="M4.16667 5.98645L4 5.44773L4.27778 5.39386L4.16667 5.98645Z" fill="#FFCC00"/>
<path d="M4.16683 5.98645L4.3335 5.44773L4.05572 5.39386L4.16683 5.98645Z" fill="#FFCC00"/>
<path d="M4.69472 5.61173L4.11543 5.60297L4.15048 5.32773L4.69472 5.61173Z" fill="#FFCC00"/>
<path d="M4.69444 5.61315L4.22041 5.29379L4.08003 5.53621L4.69444 5.61315Z" fill="#FFCC00"/>
<path d="M4.49437 5.01145L4.30068 5.54263L4.04449 5.42912L4.49437 5.01145Z" fill="#FFCC00"/>
<path d="M4.49391 5.01122L4.03212 5.35376L4.22276 5.55464L4.49391 5.01122Z" fill="#FFCC00"/>
<path d="M3.63926 5.61173L4.21855 5.60297L4.1835 5.32773L3.63926 5.61173Z" fill="#FFCC00"/>
<path d="M3.63954 5.61315L4.11357 5.29379L4.25395 5.53621L3.63954 5.61315Z" fill="#FFCC00"/>
<path d="M3.83961 5.01145L4.03331 5.54263L4.2895 5.42912L3.83961 5.01145Z" fill="#FFCC00"/>
<path d="M3.84007 5.01122L4.30186 5.35376L4.11122 5.55464L3.84007 5.01122Z" fill="#FFCC00"/>
<path d="M5.54714 7.78604L6.00895 8.12866L5.81837 8.32949L5.54714 7.78604Z" fill="#FFCC00"/>
<path d="M5.5471 7.78628L5.74088 8.31748L5.99701 8.20402L5.5471 7.78628Z" fill="#FFCC00"/>
<path d="M5.34703 8.38856L5.82243 8.06889L5.96203 8.30995L5.34703 8.38856Z" fill="#FFCC00"/>
<path d="M5.34684 8.38822L5.9264 8.37757L5.89234 8.10347L5.34684 8.38822Z" fill="#FFCC00"/>
<path d="M5.8754 8.76079L5.70785 8.22247L5.98251 8.16999L5.8754 8.76079Z" fill="#FFCC00"/>
<path d="M5.87606 8.76054L6.03842 8.22375L5.76324 8.16871L5.87606 8.76054Z" fill="#FFCC00"/>
<path d="M6.20052 7.78743L5.73954 8.12667L5.93297 8.32956L6.20052 7.78743Z" fill="#FFCC00"/>
<path d="M6.20035 7.78718L6.01052 8.31768L5.75201 8.20178L6.20035 7.78718Z" fill="#FFCC00"/>
<path d="M6.40307 8.38951L5.92502 8.06899L5.78706 8.30731L6.40307 8.38951Z" fill="#FFCC00"/>
<path d="M6.40308 8.38974L5.82297 8.3753L5.8551 8.10348L6.40308 8.38974Z" fill="#FFCC00"/>
<path d="M4.96608 6.58782L4.7723 7.11901L4.51616 7.00555L4.96608 6.58782Z" fill="#FFCC00"/>
<path d="M4.96604 6.5877L4.50424 6.93031L4.69481 7.13115L4.96604 6.5877Z" fill="#FFCC00"/>
<path d="M4.31266 6.58908L4.77364 6.92831L4.58022 7.1312L4.31266 6.58908Z" fill="#FFCC00"/>
<path d="M4.31283 6.58883L4.50266 7.11933L4.76118 7.00342L4.31283 6.58883Z" fill="#FFCC00"/>
<path d="M4.11011 7.19116L4.58817 6.87063L4.72612 7.10895L4.11011 7.19116Z" fill="#FFCC00"/>
<path d="M4.11011 7.19138L4.69022 7.17694L4.65808 6.90512L4.11011 7.19138Z" fill="#FFCC00"/>
<path d="M5.16615 7.1902L4.69076 6.87054L4.55116 7.11159L5.16615 7.1902Z" fill="#FFCC00"/>
<path d="M5.16635 7.18987L4.58678 7.17921L4.62085 6.90512L5.16635 7.18987Z" fill="#FFCC00"/>
<path d="M4.63778 7.56244L4.80533 7.02411L4.53067 6.97163L4.63778 7.56244Z" fill="#FFCC00"/>
<path d="M4.63712 7.56218L4.47477 7.02539L4.74995 6.97036L4.63712 7.56218Z" fill="#FFCC00"/>
<path d="M5.16684 3.94811L4.58778 3.94089L4.62363 3.66472L5.16684 3.94811Z" fill="#FFCC00"/>
<path d="M5.16617 3.94917L4.69325 3.63012L4.5522 3.87366L5.16617 3.94917Z" fill="#FFCC00"/>
<path d="M4.96789 3.34719L4.77089 3.87901L4.51675 3.76749L4.96789 3.34719Z" fill="#FFCC00"/>
<path d="M4.96719 3.34654L4.50471 3.69188L4.69292 3.89108L4.96719 3.34654Z" fill="#FFCC00"/>
<path d="M4.31355 3.34957L4.77417 3.68768L4.57968 3.89128L4.31355 3.34957Z" fill="#FFCC00"/>
<path d="M4.31391 3.34906L4.50226 3.87932L4.76166 3.76259L4.31391 3.34906Z" fill="#FFCC00"/>
<path d="M4.6369 4.32179L4.8055 3.78391L4.53456 3.73301L4.6369 4.32179Z" fill="#FFCC00"/>
<path d="M4.63556 4.32125L4.47835 3.78664L4.75043 3.73029L4.63556 4.32125Z" fill="#FFCC00"/>
<path d="M4.11074 3.95113L4.69094 3.93642L4.65907 3.66477L4.11074 3.95113Z" fill="#FFCC00"/>
<path d="M4.11045 3.95176L4.58888 3.63118L4.72661 3.86931L4.11045 3.95176Z" fill="#FFCC00"/>
<path d="M6.37241 2.86378L5.79335 2.85656L5.8292 2.58039L6.37241 2.86378Z" fill="#FFCC00"/>
<path d="M6.37173 2.86484L5.89882 2.5458L5.75777 2.78933L6.37173 2.86484Z" fill="#FFCC00"/>
<path d="M6.17345 2.26286L5.97645 2.79468L5.72232 2.68316L6.17345 2.26286Z" fill="#FFCC00"/>
<path d="M6.17275 2.26221L5.71027 2.60755L5.89848 2.80675L6.17275 2.26221Z" fill="#FFCC00"/>
<path d="M5.51911 2.26525L5.97974 2.60335L5.78525 2.80696L5.51911 2.26525Z" fill="#FFCC00"/>
<path d="M5.51947 2.26473L5.70782 2.795L5.96723 2.67826L5.51947 2.26473Z" fill="#FFCC00"/>
<path d="M5.84246 3.23747L6.01107 2.69959L5.74013 2.64868L5.84246 3.23747Z" fill="#FFCC00"/>
<path d="M5.84113 3.23692L5.68392 2.70231L5.956 2.64596L5.84113 3.23692Z" fill="#FFCC00"/>
<path d="M5.31631 2.8668L5.8965 2.85209L5.86464 2.58043L5.31631 2.8668Z" fill="#FFCC00"/>
<path d="M5.31601 2.86743L5.79445 2.54685L5.93218 2.78497L5.31601 2.86743Z" fill="#FFCC00"/>
</g>
<defs>
<clipPath id="clip0_523_1588">
<rect width="15" height="10.9091" fill="white" transform="matrix(-1 0 0 -1 15 10.9545)"/>
</clipPath>
</defs>
</svg>
